<svg xmlns="http://www.w3.org/2000/svg" xmlns:xlink="http://www.w3.org/1999/xlink" x="0px" y="0px" viewBox="0 0 100 100" style="enable-background:new 0 0 100 100;" xml:space="preserve">
<style type="text/css">
	.st0a{fill:url(#SVGID_GRAD1_1_);}
	.st1b{fill:url(#SVGID_GRAD1_2_);}
	.st2c{fill:url(#SVGID_GRAD1_3_);}
	.st3d{fill:url(#SVGID_GRAD1_4_);}
	.st4e{fill:url(#SVGID_GRAD1_5_);}
	.st5f{fill:url(#SVGID_GRAD1_6_);}
	.st6g{fill:url(#SVGID_GRAD1_7_);}
	.st7h{fill:url(#SVGID_GRAD1_8_);}
	.st8i{fill:url(#SVGID_GRAD1_9_);}
	.st9j{fill:url(#SVGID_GRAD1_10_);}
</style>
<g id="funds_protection_1_">
	<g>
		<g>
			<linearGradient id="SVGID_GRAD1_1_" gradientUnits="userSpaceOnUse" x1="97.7091" y1="100.2252" x2="14.8966" y2="22.1002">
				<stop offset="0" style="stop-color:#703ECD"></stop>
				<stop offset="1" style="stop-color:#26B1FF"></stop>
			</linearGradient>
			<path class="st0a" d="M52.9,60.9h-5.8c-3.2,0-5.7-2.6-5.7-5.7c0-3.2,2.6-5.7,5.7-5.7c0.3,0,0.7,0.1,0.9,0.3     c2.2,1.7,3.7,0.2,3.8,0.1c0.3-0.3,0.7-0.5,1.1-0.5c3.2,0,5.7,2.6,5.7,5.7C58.6,58.4,56.1,60.9,52.9,60.9z M46.7,52.7     c-1.2,0.2-2.2,1.3-2.2,2.6c0,1.4,1.2,2.6,2.6,2.6h5.8c1.4,0,2.6-1.2,2.6-2.6c0-1.3-0.9-2.3-2.1-2.5C52,53.7,49.5,54.5,46.7,52.7z     "></path>
		</g>
		<g>
			<g>
				<linearGradient id="SVGID_GRAD1_2_" gradientUnits="userSpaceOnUse" x1="83.3296" y1="115.4675" x2="0.517" y2="37.3425">
					<stop offset="0" style="stop-color:#703ECD"></stop>
					<stop offset="1" style="stop-color:#26B1FF"></stop>
				</linearGradient>
				<path class="st1b" d="M67.2,100H32.8c-3.4,0-6.3-2.8-6.3-6.3c0-2.2,1.2-4.3,3.1-5.4V76.6c0-12.2,10.5-18.8,20.3-18.8      c9.8,0,20.3,6.6,20.3,18.8v11.8c1.9,1.1,3.1,3.2,3.1,5.4C73.4,97.2,70.6,100,67.2,100z M50,60.9c-8.3,0-17.2,5.5-17.2,15.6v12.8      c0,0.7-0.4,1.2-1,1.5c-1.2,0.4-2.1,1.6-2.1,2.9c0,1.7,1.4,3.1,3.1,3.1h34.4c1.7,0,3.1-1.4,3.1-3.1c0-1.3-0.8-2.5-2.1-2.9      c-0.6-0.2-1-0.8-1-1.5V76.6C67.2,66.4,58.3,60.9,50,60.9z M31.2,89.4L31.2,89.4L31.2,89.4z"></path>
			</g>
		</g>
		<g>
			<g>
				<linearGradient id="SVGID_GRAD1_3_" gradientUnits="userSpaceOnUse" x1="85.4944" y1="113.1728" x2="2.6819" y2="35.0478">
					<stop offset="0" style="stop-color:#703ECD"></stop>
					<stop offset="1" style="stop-color:#26B1FF"></stop>
				</linearGradient>
				<path class="st2c" d="M51.4,87.5h-2.5c-1.2,0-3.6-0.7-4.9-3.2c-0.4-0.8-0.1-1.7,0.7-2.1c0.8-0.4,1.7-0.1,2.1,0.7      c0.7,1.4,2,1.5,2.1,1.5h2.5c0.9,0,1.6-0.7,1.6-1.6s-0.7-1.6-1.6-1.6h-2.7c-2.6,0-4.7-2.1-4.7-4.7s2.1-4.7,4.7-4.7h2.5      c1.2,0,3.6,0.7,4.9,3.2c0.4,0.8,0.1,1.7-0.7,2.1s-1.7,0.1-2.1-0.7c-0.7-1.4-2-1.5-2.1-1.5h-2.5c-0.9,0-1.6,0.7-1.6,1.6      s0.7,1.6,1.6,1.6h2.7c2.6,0,4.7,2.1,4.7,4.7S54,87.5,51.4,87.5z"></path>
			</g>
			<g>
				<linearGradient id="SVGID_GRAD1_4_" gradientUnits="userSpaceOnUse" x1="89.394" y1="109.0392" x2="6.5815" y2="30.9142">
					<stop offset="0" style="stop-color:#703ECD"></stop>
					<stop offset="1" style="stop-color:#26B1FF"></stop>
				</linearGradient>
				<path class="st3d" d="M50,75c-0.9,0-1.6-0.7-1.6-1.6v-3.1c0-0.9,0.7-1.6,1.6-1.6s1.6,0.7,1.6,1.6v3.1C51.6,74.3,50.9,75,50,75z"></path>
			</g>
			<g>
				<linearGradient id="SVGID_GRAD1_5_" gradientUnits="userSpaceOnUse" x1="81.5948" y1="117.3064" x2="-1.2177" y2="39.1814">
					<stop offset="0" style="stop-color:#703ECD"></stop>
					<stop offset="1" style="stop-color:#26B1FF"></stop>
				</linearGradient>
				<path class="st4e" d="M50,90.6c-0.9,0-1.6-0.7-1.6-1.6v-3.1c0-0.9,0.7-1.6,1.6-1.6s1.6,0.7,1.6,1.6v3.1      C51.6,89.9,50.9,90.6,50,90.6z"></path>
			</g>
		</g>
	</g>
	<g>
		<g>
			<linearGradient id="SVGID_GRAD1_6_" gradientUnits="userSpaceOnUse" x1="106.0123" y1="91.4238" x2="23.1998" y2="13.2988">
				<stop offset="0" style="stop-color:#703ECD"></stop>
				<stop offset="1" style="stop-color:#26B1FF"></stop>
			</linearGradient>
			<path class="st5f" d="M93.7,40.1c-0.3,0-0.5-0.1-0.8-0.2c-14.2-7.9-26.9-0.1-27,0c-0.5,0.3-1.1,0.3-1.6,0     c-14.2-7.9-28.6-0.1-28.8,0c-0.5,0.3-1,0.3-1.5,0c-14.2-7.9-26.9-0.1-27,0c-0.7,0.5-1.7,0.2-2.2-0.5c-0.5-0.7-0.2-1.7,0.5-2.2     c0.6-0.4,14-8.5,29.5-0.4c3.3-1.6,16.6-7.1,30.2,0c3.2-1.7,15.6-7.3,29.4,0.4c0.8,0.4,1,1.4,0.6,2.1     C94.8,39.9,94.3,40.1,93.7,40.1z"></path>
		</g>
		<g>
			<linearGradient id="SVGID_GRAD1_7_" gradientUnits="userSpaceOnUse" x1="104.9925" y1="92.5048" x2="22.18" y2="14.3798">
				<stop offset="0" style="stop-color:#703ECD"></stop>
				<stop offset="1" style="stop-color:#26B1FF"></stop>
			</linearGradient>
			<path class="st6g" d="M50,46.9c-0.9,0-1.6-0.7-1.6-1.6v-9.4c0-0.9,0.7-1.6,1.6-1.6s1.6,0.7,1.6,1.6v9.4     C51.6,46.2,50.9,46.9,50,46.9z"></path>
		</g>
		<g>
			<linearGradient id="SVGID_GRAD1_8_" gradientUnits="userSpaceOnUse" x1="107.021" y1="90.3546" x2="24.2085" y2="12.2296">
				<stop offset="0" style="stop-color:#703ECD"></stop>
				<stop offset="1" style="stop-color:#26B1FF"></stop>
			</linearGradient>
			<path class="st7h" d="M34.9,40.1c-0.8,0-1.4-0.6-1.5-1.3c-1.4-9.8,0.8-19.5,6.3-28c0.5-0.7,1.4-0.9,2.2-0.5     c0.7,0.5,0.9,1.4,0.5,2.2c-5.2,7.9-7.1,16.6-5.8,25.9c0.1,0.9-0.5,1.6-1.3,1.8C35,40.1,34.9,40.1,34.9,40.1z"></path>
		</g>
		<g>
			<linearGradient id="SVGID_GRAD1_9_" gradientUnits="userSpaceOnUse" x1="118.4426" y1="78.2477" x2="35.6301" y2="0.1227">
				<stop offset="0" style="stop-color:#703ECD"></stop>
				<stop offset="1" style="stop-color:#26B1FF"></stop>
			</linearGradient>
			<path class="st8i" d="M65.1,40.1c-0.1,0-0.1,0-0.2,0c-0.9-0.1-1.4-0.9-1.3-1.8c1.3-9.2-0.6-17.9-5.8-25.9     c-0.5-0.7-0.3-1.7,0.5-2.2c0.7-0.5,1.7-0.3,2.2,0.5c5.5,8.5,7.7,18.2,6.3,28C66.6,39.6,65.9,40.1,65.1,40.1z"></path>
		</g>
		<g>
			<linearGradient id="SVGID_GRAD1_10_" gradientUnits="userSpaceOnUse" x1="109.5403" y1="87.6841" x2="26.7278" y2="9.5591">
				<stop offset="0" style="stop-color:#703ECD"></stop>
				<stop offset="1" style="stop-color:#26B1FF"></stop>
			</linearGradient>
			<path class="st9j" d="M93.7,40.1c-0.9,0-1.6-0.7-1.6-1.6C92.2,19,73.3,3.1,50,3.1S7.8,19,7.8,38.6c0,0.9-0.7,1.6-1.6,1.6     s-1.6-0.7-1.6-1.6C4.7,17.3,25,0,50,0c25,0,45.3,17.3,45.3,38.6C95.3,39.4,94.6,40.1,93.7,40.1z"></path>
		</g>
	</g>
</g>
</svg>