<svg xmlns="http://www.w3.org/2000/svg" xmlns:xlink="http://www.w3.org/1999/xlink" x="0px" y="0px" viewBox="0 0 100 100" style="enable-background:new 0 0 100 100;" xml:space="preserve">
<g style="display:none;">
	<g style="display:inline;">
		<g>
			<g>
				<g>
					<path style="fill:#FFFFFF;" d="M83.7,98.4H16.3c-1.1,0-2-0.9-2-2V3.6c0-1.1,0.9-2,2-2h67.3c1.1,0,2,0.9,2,2v92.8       C85.7,97.5,84.8,98.4,83.7,98.4z"></path>
				</g>
			</g>
		</g>
		<g>
			<g>
				<g>
					<path style="fill:#193651;" d="M82.5,100H17.5c-2.6,0-4.7-2.1-4.7-4.7V4.7c0-2.6,2.1-4.7,4.7-4.7h65.1c2.6,0,4.7,2.1,4.7,4.7       v90.6C87.2,97.9,85.1,100,82.5,100z M17.5,3.2c-0.9,0-1.6,0.7-1.6,1.6v90.6c0,0.9,0.7,1.6,1.6,1.6h65.1c0.9,0,1.6-0.7,1.6-1.6       V4.7c0-0.9-0.7-1.6-1.6-1.6H17.5z"></path>
				</g>
			</g>
		</g>
	</g>
	<g style="display:inline;">
		<g>
			<g>
				<g>
					<path style="fill:#D3D7DA;" d="M14.3,82.2v12.1c0,2.3,1.8,4.1,4.1,4.1h63.1c2.3,0,4.1-1.8,4.1-4.1V82.2"></path>
				</g>
			</g>
		</g>
		<g>
			<g>
				<g>
					<path style="fill:#193651;" d="M81.6,100H18.4c-3.1,0-5.7-2.5-5.7-5.7V82.2h3.1v12.1c0,1.4,1.1,2.5,2.5,2.5h63.1       c1.4,0,2.5-1.1,2.5-2.5V82.2h3.1v12.1C87.2,97.4,84.7,100,81.6,100z"></path>
				</g>
			</g>
		</g>
	</g>
	<g style="display:inline;">
		<g>
			<g>
				<g>
					<path style="fill:#D3D7DA;" d="M85.7,14.6V5.7c0-2.3-1.8-4.1-4.1-4.1H18.4c-2.3,0-4.1,1.8-4.1,4.1v8.9"></path>
				</g>
			</g>
		</g>
		<g>
			<g>
				<g>
					<path style="fill:#193651;" d="M87.2,14.6h-3.1V5.7c0-1.4-1.1-2.5-2.5-2.5H18.4c-1.4,0-2.5,1.1-2.5,2.5v8.9h-3.1V5.7       c0-3.1,2.5-5.7,5.7-5.7h63.1c3.1,0,5.7,2.5,5.7,5.7V14.6z"></path>
				</g>
			</g>
		</g>
	</g>
	<g style="display:inline;">
		<g>
			<g>
				<g>
					<line style="fill:#FFFFFF;" x1="46.1" y1="8.1" x2="57" y2="8.1"></line>
				</g>
			</g>
		</g>
		<g>
			<g>
				<g>
					<rect x="46.1" y="6.5" style="fill:#193651;" width="10.9" height="3.1"></rect>
				</g>
			</g>
		</g>
	</g>
	<g style="display:inline;">
		<g>
			<g>
				<g>
					<line style="fill:#FFFFFF;" x1="38.3" y1="8.1" x2="41.4" y2="8.1"></line>
				</g>
			</g>
		</g>
		<g>
			<g>
				<g>
					<rect x="38.3" y="6.5" style="fill:#193651;" width="3.1" height="3.1"></rect>
				</g>
			</g>
		</g>
	</g>
	<g style="display:inline;">
		<g>
			<g>
				<g>
					<line style="fill:#FFFFFF;" x1="41.3" y1="89.3" x2="58.7" y2="89.3"></line>
				</g>
			</g>
		</g>
		<g>
			<g>
				<g>
					<rect x="41.3" y="87.7" style="fill:#193651;" width="17.4" height="3.1"></rect>
				</g>
			</g>
		</g>
	</g>
	<g style="display:inline;">
		<g>
			<g>
				<g>
					<polygon style="fill:#D3D7DA;" points="27.5,73.1 26.6,71.8 42.5,61.2 54.8,69.4 72.5,57.7 73.4,59 54.8,71.3 42.5,63.1             "></polygon>
				</g>
			</g>
		</g>
	</g>
	<g style="display:inline;">
		<g>
			<g>
				<g>
					<path style="fill:#27A2DE;" d="M75.8,55.8c2.3,3.6-1.5,7.5-5.2,5.2c-0.3-0.2-0.5-0.4-0.6-0.6c-2.3-3.6,1.5-7.5,5.2-5.2       C75.4,55.3,75.7,55.5,75.8,55.8z"></path>
				</g>
			</g>
		</g>
	</g>
	<g style="display:inline;">
		<g>
			<g>
				<g>
					<path style="fill:#27A2DE;" d="M57.8,67.8c2.3,3.6-1.5,7.5-5.2,5.2c-0.3-0.2-0.5-0.4-0.6-0.6c-2.3-3.6,1.5-7.5,5.2-5.2       C57.4,67.3,57.6,67.5,57.8,67.8z"></path>
				</g>
			</g>
		</g>
	</g>
	<g style="display:inline;">
		<g>
			<g>
				<g>
					<path style="fill:#27A2DE;" d="M30,70.2c2.3,3.6-1.5,7.5-5.2,5.2c-0.3-0.2-0.5-0.4-0.6-0.6c-2.3-3.6,1.5-7.5,5.2-5.2       C29.6,69.8,29.8,70,30,70.2z"></path>
				</g>
			</g>
		</g>
	</g>
	<g style="display:inline;">
		<g>
			<g>
				<g>
					<path style="fill:#27A2DE;" d="M45.5,59.4c2.3,3.6-1.5,7.5-5.2,5.2c-0.3-0.2-0.5-0.4-0.6-0.6c-2.3-3.6,1.5-7.5,5.2-5.2       C45.1,58.9,45.3,59.1,45.5,59.4z"></path>
				</g>
			</g>
		</g>
	</g>
	<g style="display:inline;">
		<g>
			<g>
				<g>
					<rect x="74.7" y="34.3" style="fill:#F15F50;" width="4.1" height="12.7"></rect>
				</g>
			</g>
		</g>
	</g>
	<g style="display:inline;">
		<g>
			<g>
				<g>
					<rect x="66.2" y="30.2" style="fill:#F15F50;" width="4.1" height="16.8"></rect>
				</g>
			</g>
		</g>
	</g>
	<g style="display:inline;">
		<g>
			<g>
				<g>
					<rect x="57.6" y="24.9" style="fill:#F15F50;" width="4.1" height="22.2"></rect>
				</g>
			</g>
		</g>
	</g>
	<g style="display:inline;">
		<g>
			<g>
				<g>
					<path style="fill:#FFBF5D;" d="M43.1,33.2l-10.8,3.9l3.9-10.8c-4.1-1.5-8.8-0.6-12,2.7c-4.5,4.5-4.5,11.7,0,16.2       c4.5,4.5,11.7,4.5,16.2,0C43.7,42,44.6,37.3,43.1,33.2z"></path>
				</g>
			</g>
		</g>
	</g>
	<g style="display:inline;">
		<g>
			<g>
				<g>
					<path style="fill:#44C4A1;" d="M48.2,28.1c-0.6-1.5-1.4-3-2.7-4.2c-1.2-1.2-2.7-2.1-4.2-2.7l-3.9,10.8L48.2,28.1z"></path>
				</g>
			</g>
		</g>
	</g>
</g>
<g style="display:none;">
	<g style="display:inline;">
		<g>
			<g>
				<g>
					
						<ellipse transform="matrix(0.7071 -0.7071 0.7071 0.7071 -26.6964 52.4335)" style="fill:#FFBF5D;" cx="49.9" cy="58.4" rx="35.7" ry="27.3"></ellipse>
				</g>
			</g>
		</g>
	</g>
	<g style="display:inline;">
		<g>
			<g>
				<g>
					<g>
						<path style="fill:#193651;" d="M87.2,73.2c-3,0-5.5-2.5-5.5-5.5c0-3,2.5-5.5,5.5-5.5c3,0,5.5,2.5,5.5,5.5h5.8        c0-5.2-3.6-9.6-8.4-10.9v-4.3h-5.8l0,4.3c-4.8,1.3-8.4,5.7-8.4,10.9c0,6.2,5.1,11.3,11.3,11.3c3,0,5.5,2.5,5.5,5.5        c0,3-2.5,5.5-5.5,5.5c-3,0-5.5-2.5-5.5-5.5h-5.8c0,5.2,3.6,9.6,8.4,10.9v4.3h5.8v-4.3c4.8-1.3,8.4-5.7,8.4-10.9        C98.5,78.3,93.4,73.2,87.2,73.2z"></path>
					</g>
				</g>
			</g>
		</g>
		<g>
			<g>
				<g>
					<g>
						<path style="fill:#193651;" d="M88.7,49.6h-3.1v-3.1h3.1V49.6z M88.7,43.4h-3.1v-3.1h3.1V43.4z M88.7,37.1h-3.1V34h3.1V37.1z"></path>
					</g>
				</g>
			</g>
		</g>
		<g>
			<g>
				<g>
					<g>
						<polygon style="fill:#193651;" points="97.4,14.9 87.2,4.8 77,14.9 74.8,12.7 87.2,0.3 99.6,12.7       "></polygon>
					</g>
				</g>
			</g>
		</g>
		<g>
			<g>
				<g>
					<g>
						<path style="fill:#193651;" d="M49.9,78.6c-2.4,0-4.4-2-4.4-4.4c0-2.4,2-4.4,4.4-4.4c2.4,0,4.4,2,4.4,4.4H59        c0-4.2-2.9-7.6-6.7-8.7v-3.4h-4.6l0,3.4c-3.8,1-6.7,4.5-6.7,8.7c0,5,4,9,9,9c2.4,0,4.4,2,4.4,4.4c0,2.4-2,4.4-4.4,4.4        c-2.4,0-4.4-2-4.4-4.4h-4.6c0,4.2,2.9,7.6,6.7,8.7v3.4h4.6v-3.4c3.8-1,6.7-4.5,6.7-8.7C59,82.6,54.9,78.6,49.9,78.6z"></path>
					</g>
				</g>
			</g>
		</g>
		<g>
			<g>
				<g>
					<g>
						<path style="fill:#193651;" d="M51.5,58.3h-3.1v-3.1h3.1V58.3z M51.5,52h-3.1v-3.1h3.1V52z M51.5,45.7h-3.1v-3h3.1V45.7z"></path>
					</g>
				</g>
			</g>
		</g>
		<g>
			<g>
				<g>
					<g>
						<rect x="48.4" y="10.9" style="fill:#193651;" width="3.1" height="27.5"></rect>
					</g>
				</g>
			</g>
		</g>
		<g>
			<g>
				<g>
					<g>
						<polygon style="fill:#193651;" points="58.3,21.5 49.9,13.1 41.5,21.5 39.3,19.3 49.9,8.7 60.6,19.3       "></polygon>
					</g>
				</g>
			</g>
		</g>
		<g>
			<g>
				<g>
					<g>
						<path style="fill:#193651;" d="M8.5,82.9c-1.9,0-3.5-1.6-3.5-3.5c0-1.9,1.6-3.5,3.5-3.5c1.9,0,3.5,1.6,3.5,3.5h3.7        c0-3.3-2.3-6.1-5.3-6.9v-2.7H6.7l0,2.7c-3.1,0.8-5.3,3.6-5.3,6.9c0,3.9,3.2,7.2,7.2,7.2c1.9,0,3.5,1.6,3.5,3.5        c0,1.9-1.6,3.5-3.5,3.5c-1.9,0-3.5-1.6-3.5-3.5H1.4c0,3.3,2.3,6.1,5.3,6.9v2.7h3.7V97c3.1-0.8,5.3-3.6,5.3-6.9        C15.7,86.1,12.5,82.9,8.5,82.9z"></path>
					</g>
				</g>
			</g>
		</g>
		<g>
			<g>
				<g>
					<g>
						<path style="fill:#193651;" d="M10.1,65.2H7V62h3.1V65.2z M10.1,58.9H7v-3.1h3.1V58.9z M10.1,52.6H7v-3h3.1V52.6z"></path>
					</g>
				</g>
			</g>
		</g>
		<g>
			<g>
				<g>
					<g>
						<polygon style="fill:#193651;" points="14.4,30.9 8.5,25 2.6,30.9 0.4,28.7 8.5,20.6 16.6,28.7       "></polygon>
					</g>
				</g>
			</g>
		</g>
		<g>
			<g>
				<g>
					<g>
						<rect x="7" y="22.8" style="fill:#193651;" width="3.1" height="23.5"></rect>
					</g>
				</g>
			</g>
		</g>
		<g>
			<g>
				<g>
					<g>
						<rect x="85.6" y="2.5" style="fill:#193651;" width="3.1" height="28"></rect>
					</g>
				</g>
			</g>
		</g>
	</g>
</g>
<g style="display:none;">
	<g style="display:inline;">
		<g>
			<g>
				<g>
					<polygon style="fill:#193651;" points="99.1,16.1 96.1,16.1 96.1,8.4 88.4,8.4 88.4,5.3 99.1,5.3      "></polygon>
				</g>
			</g>
		</g>
	</g>
	<g style="display:inline;">
		<g>
			<g>
				<g>
					<g>
						<path style="fill:#D3D7DA;" d="M29.4,23.2c4.6,7.3,4,16.3-0.6,22.9c2.6-0.4,5.2-1.4,7.6-2.9c9.7-6.1,12.6-18.8,6.5-28.5        C36.8,5.1,24,2.1,14.3,8.2c-2.4,1.5-4.4,3.4-5.9,5.6C16.4,12.5,24.8,15.9,29.4,23.2z"></path>
					</g>
				</g>
			</g>
		</g>
		<g>
			<g>
				<g>
					<g>
						<g>
							<path style="fill:#FFBF5D;" d="M18.7,23.6c-6.2,1.8-11.1,6.9-12.4,14l0,0c7,2,13.7-0.2,18-5L18.7,23.6z"></path>
						</g>
					</g>
				</g>
			</g>
			<g>
				<g>
					<g>
						<g>
							<path style="fill:#FFFFFF;" d="M26.5,36.2c16.6-0.8,30-12.9,32.4-31.5v0C41.1-1.2,24.4,5.5,16.5,20.1L26.5,36.2z"></path>
						</g>
					</g>
				</g>
				<g>
					<g>
						<g>
							<path style="fill:#193651;" d="M25.7,37.7l-11-17.5l0.4-0.8C21.4,7.9,33,1,46.2,1c4.4,0,8.8,0.7,13.2,2.2l1.2,0.4l-0.2,1.3         c-2.5,18.8-16.1,32-33.8,32.8L25.7,37.7z M18.3,20.1l9.1,14.5C42.8,33.4,54.6,22,57.2,5.7c-3.7-1.1-7.4-1.7-11-1.7         C34.4,4.1,24.1,10,18.3,20.1z"></path>
						</g>
					</g>
				</g>
			</g>
			<g>
				<g>
					<g>
						<g>
							<path style="fill:#27A2DE;" d="M48.9,15.9c-2.6,4.6-9.2,3.1-9.5-2.2c0-0.7,0.1-1.5,0.5-2.1c2.6-4.6,9.2-3.1,9.5,2.2         C49.4,14.5,49.3,15.3,48.9,15.9z"></path>
						</g>
					</g>
				</g>
			</g>
		</g>
	</g>
	<g style="display:inline;">
		<g>
			<g>
				<g>
					<path style="fill:#193651;" d="M3.5,68.8l-0.8-3c1-0.3,2-0.6,2.9-0.8l0.9,2.9C5.5,68.2,4.5,68.5,3.5,68.8z M9.4,67l-0.9-2.9       c1-0.3,1.9-0.6,2.9-0.9l1,2.9C11.4,66.4,10.4,66.7,9.4,67z M15.3,65l-1-2.9c1-0.3,1.9-0.7,2.9-1l1.1,2.9       C17.3,64.3,16.3,64.7,15.3,65z M21.1,62.8L20,60c0.9-0.4,1.9-0.8,2.8-1.1l1.2,2.8C23,62.1,22.1,62.5,21.1,62.8z M26.8,60.5       l-1.2-2.8c0.9-0.4,1.9-0.8,2.8-1.2l1.3,2.8C28.7,59.6,27.8,60.1,26.8,60.5z M32.5,57.9l-1.3-2.8c0.9-0.4,1.8-0.9,2.7-1.3       l1.4,2.8C34.3,57,33.4,57.5,32.5,57.9z M38,55.2l-1.4-2.7c0.9-0.5,1.8-0.9,2.7-1.4l1.4,2.7C39.9,54.2,39,54.7,38,55.2z        M43.5,52.3L42,49.6c0.9-0.5,1.8-1,2.7-1.5l1.5,2.7C45.3,51.2,44.4,51.8,43.5,52.3z M48.9,49.2l-1.6-2.6c0.9-0.5,1.8-1,2.6-1.6       l1.6,2.6C50.6,48.1,49.8,48.7,48.9,49.2z M54.1,45.9l-1.6-2.6c0.9-0.5,1.7-1.1,2.6-1.7l1.7,2.6C55.9,44.8,55,45.4,54.1,45.9z        M59.3,42.5L57.6,40c0.9-0.6,1.7-1.2,2.5-1.7l1.8,2.5C61,41.4,60.2,42,59.3,42.5z M64.4,39l-1.8-2.5c0.8-0.6,1.7-1.2,2.5-1.8       l1.8,2.5C66.1,37.8,65.2,38.4,64.4,39z M69.4,35.3l-1.9-2.4c0.8-0.6,1.6-1.3,2.4-1.9l1.9,2.4C71,34.1,70.2,34.7,69.4,35.3z        M74.2,31.5l-1.9-2.4c0.8-0.7,1.6-1.3,2.4-1.9l2,2.4C75.8,30.2,75,30.8,74.2,31.5z M79,27.5l-2-2.3c0.8-0.7,1.6-1.3,2.3-2       l2,2.3C80.6,26.2,79.8,26.8,79,27.5z M83.6,23.4l-2.1-2.3c0.8-0.7,1.5-1.4,2.2-2.1l2.1,2.2C85.2,22,84.4,22.7,83.6,23.4z        M88.1,19.2L86,17c0.8-0.7,1.5-1.5,2.2-2.1l2.2,2.2C89.7,17.7,88.9,18.4,88.1,19.2z M92.5,14.8l-2.2-2.1       c0.8-0.8,1.5-1.5,2.1-2.2l2.3,2.1C94,13.2,93.3,14,92.5,14.8z M96.7,10.2l-2.3-2c1.3-1.4,1.9-2.3,2-2.3l2.4,1.9       C98.8,7.8,98.1,8.7,96.7,10.2z"></path>
				</g>
			</g>
		</g>
	</g>
	<g style="display:inline;">
		<g>
			<g>
				<g>
					<path style="fill:#FFFFFF;" d="M2.4,97.5h21.1V77.1c-6.6,2.8-13.7,5.2-21.1,7.3V97.5z"></path>
				</g>
			</g>
		</g>
		<g>
			<g>
				<g>
					<path style="fill:#193651;" d="M25,99H0.9V83.2L2,82.9c7-1.9,14-4.4,20.9-7.2l2.1-0.9V99z M3.9,95.9h18V79.4       c-5.9,2.4-12,4.5-18,6.2V95.9z"></path>
				</g>
			</g>
		</g>
	</g>
	<g style="display:inline;">
		<g>
			<g>
				<g>
					<path style="fill:#FFFFFF;" d="M39.4,97.5h21.1V56.7c-6.3,4.4-13.4,8.8-21.1,12.9V97.5z"></path>
				</g>
			</g>
		</g>
		<g>
			<g>
				<g>
					<path style="fill:#193651;" d="M62.1,99H37.9V68.7l0.8-0.4c7.1-3.8,14.2-8.1,21-12.8l2.4-1.7V99z M41,95.9h18V59.6       c-5.9,3.9-11.9,7.6-18,10.9V95.9z"></path>
				</g>
			</g>
		</g>
	</g>
	<g style="display:inline;">
		<g>
			<g>
				<g>
					<path style="fill:#FFFFFF;" d="M76.5,44.5v53h21.1V23.8C97.6,23.8,90.2,33,76.5,44.5z"></path>
				</g>
			</g>
		</g>
		<g>
			<g>
				<g>
					<path style="fill:#193651;" d="M99.1,99H75V43.8l0.5-0.5C88.9,32,96.3,22.9,96.4,22.8l2.7-3.4V99z M78,95.9h18V27.9       c-3.2,3.6-9.3,9.9-18,17.3V95.9z"></path>
				</g>
			</g>
		</g>
	</g>
</g>
<g style="display:none;">
	<g style="display:inline;">
		<g>
			<g>
				<g>
					<rect x="1.6" y="42.6" style="fill:#FFFFFF;" width="55.8" height="55.8"></rect>
				</g>
			</g>
		</g>
		<g>
			<g>
				<g>
					<path style="fill:#193651;" d="M58.9,100H0V41.1h58.9V100z M3.1,96.9h52.7V44.2H3.1V96.9z"></path>
				</g>
			</g>
		</g>
	</g>
	<g style="display:inline;">
		<g>
			<g>
				<g>
					
						<rect x="7.8" y="48.9" transform="matrix(-1.836970e-16 1 -1 -1.836970e-16 74.6396 41.0661)" style="fill:#E1E6E9;" width="17.9" height="17.9"></rect>
				</g>
			</g>
		</g>
	</g>
	<g style="display:inline;">
		<g>
			<g>
				<g>
					
						<rect x="33.2" y="48.9" transform="matrix(-1.836970e-16 1 -1 -1.836970e-16 100 15.7057)" style="fill:#E1E6E9;" width="17.9" height="17.9"></rect>
				</g>
			</g>
		</g>
	</g>
	<g style="display:inline;">
		<g>
			<g>
				<g>
					
						<rect x="7.8" y="74.2" transform="matrix(-1.836970e-16 1 -1 -1.836970e-16 100.0005 66.427)" style="fill:#E1E6E9;" width="17.9" height="17.9"></rect>
				</g>
			</g>
		</g>
	</g>
	<g style="display:inline;">
		<g>
			<g>
				<g>
					
						<rect x="33.2" y="74.2" transform="matrix(-1.836970e-16 1 -1 -1.836970e-16 125.3609 41.0666)" style="fill:#F15F50;" width="17.9" height="17.9"></rect>
				</g>
			</g>
		</g>
	</g>
	<g style="display:inline;">
		<g>
			<g>
				<g>
					<g>
						<rect x="29.7" y="1.6" style="fill:#FFFFFF;" width="68.7" height="41.1"></rect>
					</g>
				</g>
			</g>
			<g>
				<g>
					<g>
						<path style="fill:#193651;" d="M100,44.2H28.1V0H100V44.2z M31.3,41.1h65.6V3.1H31.3V41.1z"></path>
					</g>
				</g>
			</g>
		</g>
		<g>
			<g>
				<g>
					<g>
						<path style="fill:#44C4A1;" d="M36.3,32V12.2c2.2,0,4-1.8,4-4h47.6c0,2.2,1.8,4,4,4V32c-2.2,0-4,1.8-4,4H40.3        C40.3,33.8,38.5,32,36.3,32z"></path>
					</g>
				</g>
			</g>
		</g>
		<g>
			<g>
				<g>
					<g>
						<path style="fill:#FFFFFF;" d="M72.5,15.7c6.4,10.3-4.4,21.2-14.7,14.7c-0.8-0.5-1.5-1.2-2-2c-6.4-10.3,4.4-21.2,14.7-14.7        C71.2,14.2,71.9,14.9,72.5,15.7z"></path>
					</g>
				</g>
			</g>
		</g>
		<g>
			<g>
				<g>
					<g>
						<path style="fill:#FFFFFF;" d="M85.9,20.9c1.2,2-0.9,4.1-2.8,2.8c-0.2-0.1-0.3-0.2-0.4-0.4c-1.2-2,0.9-4.1,2.8-2.8        C85.6,20.6,85.8,20.7,85.9,20.9z"></path>
					</g>
				</g>
			</g>
		</g>
		<g>
			<g>
				<g>
					<g>
						<path style="fill:#FFFFFF;" d="M45.5,20.9c1.2,2-0.9,4.1-2.8,2.8c-0.2-0.1-0.3-0.2-0.4-0.4c-1.2-2,0.9-4.1,2.8-2.8        C45.3,20.6,45.4,20.7,45.5,20.9z"></path>
					</g>
				</g>
			</g>
		</g>
		<g>
			<g>
				<g>
					<g>
						<path style="fill:#193651;" d="M64.1,28.1c-1.9,0-3.4-1.5-3.4-3.4h1.8c0,0.9,0.7,1.7,1.7,1.7s1.7-0.7,1.7-1.7        c0-0.9-0.7-1.7-1.7-1.7c-1.9,0-3.4-1.5-3.4-3.4c0-1.9,1.5-3.4,3.4-3.4c1.9,0,3.4,1.5,3.4,3.4h-1.8c0-0.9-0.7-1.7-1.7-1.7        s-1.7,0.7-1.7,1.7c0,0.9,0.7,1.7,1.7,1.7c1.9,0,3.4,1.5,3.4,3.4C67.5,26.5,66,28.1,64.1,28.1z"></path>
					</g>
				</g>
			</g>
		</g>
		<g>
			<g>
				<g>
					<g>
						<g>
							<rect x="63.2" y="14.9" style="fill:#193651;" width="1.8" height="1.4"></rect>
						</g>
					</g>
				</g>
			</g>
			<g>
				<g>
					<g>
						<g>
							<rect x="63.2" y="27.9" style="fill:#193651;" width="1.8" height="1.4"></rect>
						</g>
					</g>
				</g>
			</g>
		</g>
	</g>
	<g style="display:inline;">
		<g>
			<g>
				<g>
					<g>
						<line style="fill:#FFFFFF;" x1="16.8" y1="52" x2="16.8" y2="63.7"></line>
					</g>
				</g>
			</g>
			<g>
				<g>
					<g>
						<rect x="15.2" y="52" style="fill:#193651;" width="3.1" height="11.7"></rect>
					</g>
				</g>
			</g>
		</g>
		<g>
			<g>
				<g>
					<g>
						<line style="fill:#FFFFFF;" x1="22.7" y1="57.9" x2="10.9" y2="57.9"></line>
					</g>
				</g>
			</g>
			<g>
				<g>
					<g>
						<rect x="10.9" y="56.3" style="fill:#193651;" width="11.7" height="3.1"></rect>
					</g>
				</g>
			</g>
		</g>
	</g>
	<g style="display:inline;">
		<g>
			<g>
				<g>
					<g>
						<line style="fill:#FFFFFF;" x1="46.3" y1="53.7" x2="38" y2="62"></line>
					</g>
				</g>
			</g>
			<g>
				<g>
					<g>
						
							<rect x="36.3" y="56.3" transform="matrix(0.7071 -0.7071 0.7071 0.7071 -28.5636 46.7472)" style="fill:#193651;" width="11.7" height="3.1"></rect>
					</g>
				</g>
			</g>
		</g>
		<g>
			<g>
				<g>
					<g>
						<line style="fill:#FFFFFF;" x1="46.3" y1="62" x2="38" y2="53.7"></line>
					</g>
				</g>
			</g>
			<g>
				<g>
					<g>
						
							<rect x="40.6" y="52" transform="matrix(0.7071 -0.7071 0.7071 0.7071 -28.5633 46.7455)" style="fill:#193651;" width="3.1" height="11.7"></rect>
					</g>
				</g>
			</g>
		</g>
	</g>
	<g style="display:inline;">
		<g>
			<g>
				<g>
					<line style="fill:#FFFFFF;" x1="22.7" y1="83.2" x2="10.9" y2="83.2"></line>
				</g>
			</g>
		</g>
		<g>
			<g>
				<g>
					<rect x="10.9" y="81.7" style="fill:#193651;" width="11.7" height="3.1"></rect>
				</g>
			</g>
		</g>
	</g>
	<g style="display:inline;">
		<g>
			<g>
				<g>
					<g>
						<line style="fill:#FFFFFF;" x1="48" y1="80.1" x2="36.3" y2="80.1"></line>
					</g>
				</g>
			</g>
			<g>
				<g>
					<g>
						<rect x="36.3" y="78.5" style="fill:#193651;" width="11.7" height="3.1"></rect>
					</g>
				</g>
			</g>
		</g>
		<g>
			<g>
				<g>
					<g>
						<line style="fill:#FFFFFF;" x1="48" y1="86.3" x2="36.3" y2="86.3"></line>
					</g>
				</g>
			</g>
			<g>
				<g>
					<g>
						<rect x="36.3" y="84.8" style="fill:#193651;" width="11.7" height="3.1"></rect>
					</g>
				</g>
			</g>
		</g>
	</g>
	<g style="display:inline;">
		<g>
			<g>
				<g>
					<g>
						<rect x="90.3" y="53.2" style="fill:#193651;" width="3.1" height="1.6"></rect>
					</g>
				</g>
			</g>
		</g>
		<g>
			<g>
				<g>
					<g>
						<path style="fill:#193651;" d="M77.3,100h-3.1v-3.1h3.1V100z M71.2,100h-3.1v-3.1h3.1V100z M65.1,100H62v-3.1h3.1V100z         M80.7,99.7l-0.6-3.1c0.9-0.2,1.8-0.4,2.6-0.8l1.2,2.9C82.9,99.1,81.8,99.5,80.7,99.7z M86.9,97L85,94.5        c0.7-0.5,1.4-1.1,2-1.8l2.3,2.1C88.6,95.6,87.8,96.3,86.9,97z M91.4,92l-2.7-1.5c0.4-0.8,0.8-1.6,1.1-2.5l3,0.9        C92.4,89.9,91.9,91,91.4,92z M93.4,85.5l-3.1-0.3c0-0.3,0-0.7,0-1v-1.9h3.1v1.9C93.4,84.7,93.4,85.1,93.4,85.5z M93.4,79.3        h-3.1v-3.1h3.1V79.3z M93.4,73.1h-3.1v-3.1h3.1V73.1z M93.4,67h-3.1v-3.1h3.1V67z M93.4,60.9h-3.1v-3.1h3.1V60.9z"></path>
					</g>
				</g>
			</g>
		</g>
		<g>
			<g>
				<g>
					<g>
						<rect x="57.4" y="96.9" style="fill:#193651;" width="1.6" height="3.1"></rect>
					</g>
				</g>
			</g>
		</g>
	</g>
	<g style="display:inline;">
		<g>
			<g>
				<g>
					<polygon style="fill:#193651;" points="96.6,60.1 91.8,55.4 87.1,60.1 84.9,57.9 91.8,51 98.8,57.9      "></polygon>
				</g>
			</g>
		</g>
	</g>
	<g style="display:inline;">
		<g>
			<g>
				<g>
					<g>
						<path style="fill:#193651;" d="M3.1,42.6H0V42h3.1V42.6z M3.1,38.9H0v-3.1h3.1V38.9z M3.1,32.7H0v-3.1h3.1V32.7z M3.1,26.4H0        v-3.1h3.1V26.4z M3.1,20.2H0V17h3.1V20.2z M3.2,14.2l-3.1-0.5c0.2-1.2,0.6-2.4,1.3-3.5l2.6,1.7C3.6,12.6,3.3,13.3,3.2,14.2z         M5.8,10.1L4,7.5c1-0.7,2.2-1.2,3.4-1.4l0.6,3.1C7.3,9.3,6.5,9.6,5.8,10.1z M20.3,9h-3.1V5.9h3.1V9z M14,9h-3.1V5.9H14V9z"></path>
					</g>
				</g>
			</g>
		</g>
		<g>
			<g>
				<g>
					<g>
						<polygon style="fill:#193651;" points="15.5,14.4 13.3,12.2 18.1,7.4 13.3,2.7 15.5,0.5 22.5,7.4       "></polygon>
					</g>
				</g>
			</g>
		</g>
	</g>
</g>
<g>
	<g>
		<g>
			<g>
				<g>
					<polygon style="fill:#FFFFFF;" points="50,94 2,94 8,70 44,70      "></polygon>
				</g>
			</g>
		</g>
		<g>
			<g>
				<g>
					<path style="fill:#193651;" d="M52,95.5H0l6.8-27.1h38.4L52,95.5z M4,92.4h44l-5.2-20.9H9.2L4,92.4z"></path>
				</g>
			</g>
		</g>
	</g>
	<g>
		<g>
			<g>
				<g>
					<polygon style="fill:#FFBF5D;" points="9.9,87.8 12.8,76.2 39.2,76.2 42.1,87.8      "></polygon>
				</g>
			</g>
		</g>
	</g>
	<g>
		<g>
			<g>
				<g>
					<polygon style="fill:#FFFFFF;" points="98,94 50,94 56,70 92,70      "></polygon>
				</g>
			</g>
		</g>
		<g>
			<g>
				<g>
					<path style="fill:#193651;" d="M100,95.5H48l6.8-27.1h38.4L100,95.5z M52,92.4h44l-5.2-20.9H57.2L52,92.4z"></path>
				</g>
			</g>
		</g>
	</g>
	<g>
		<g>
			<g>
				<g>
					<polygon style="fill:#FFBF5D;" points="57.9,87.8 60.8,76.2 87.2,76.2 90.1,87.8      "></polygon>
				</g>
			</g>
		</g>
	</g>
	<g>
		<g>
			<g>
				<g>
					<polygon style="fill:#FFFFFF;" points="74,70 26,70 32,46 68,46      "></polygon>
				</g>
			</g>
		</g>
		<g>
			<g>
				<g>
					<path style="fill:#193651;" d="M76,71.5H24l6.8-27.1h38.4L76,71.5z M28,68.4h44l-5.2-20.9H33.2L28,68.4z"></path>
				</g>
			</g>
		</g>
	</g>
	<g>
		<g>
			<g>
				<g>
					<polygon style="fill:#FFBF5D;" points="33.9,63.8 36.8,52.2 63.2,52.2 66.1,63.8      "></polygon>
				</g>
			</g>
		</g>
	</g>
	<g>
		<g>
			<g>
				<g>
					<g>
						<line style="fill:#FFFFFF;" x1="36.8" y1="5.9" x2="40.5" y2="19.7"></line>
					</g>
				</g>
			</g>
			<g>
				<g>
					<g>
						
							<rect x="37.2" y="5.7" transform="matrix(0.9659 -0.2589 0.2589 0.9659 -1.9984 10.4541)" style="fill:#193651;" width="3.1" height="14.3"></rect>
					</g>
				</g>
			</g>
		</g>
		<g>
			<g>
				<g>
					<g>
						<line style="fill:#FFFFFF;" x1="98.3" y1="41.4" x2="84.5" y2="45.1"></line>
					</g>
				</g>
			</g>
			<g>
				<g>
					<g>
						
							<rect x="84.2" y="41.7" transform="matrix(0.9659 -0.2588 0.2588 0.9659 -8.078 25.1301)" style="fill:#193651;" width="14.3" height="3.1"></rect>
					</g>
				</g>
			</g>
		</g>
		<g>
			<g>
				<g>
					<g>
						<line style="fill:#FFFFFF;" x1="14.6" y1="18.4" x2="24.8" y2="28.6"></line>
					</g>
				</g>
			</g>
			<g>
				<g>
					<g>
						
							<rect x="18.2" y="16.3" transform="matrix(0.7071 -0.7071 0.7071 0.7071 -10.8404 20.8145)" style="fill:#193651;" width="3.1" height="14.3"></rect>
					</g>
				</g>
			</g>
		</g>
		<g>
			<g>
				<g>
					<g>
						<line style="fill:#FFFFFF;" x1="85.6" y1="18.4" x2="75.5" y2="28.6"></line>
					</g>
				</g>
			</g>
			<g>
				<g>
					<g>
						
							<rect x="73.4" y="21.9" transform="matrix(0.7071 -0.7071 0.7071 0.7071 6.985 63.8494)" style="fill:#193651;" width="14.3" height="3.1"></rect>
					</g>
				</g>
			</g>
		</g>
		<g>
			<g>
				<g>
					<g>
						<line style="fill:#FFFFFF;" x1="1.7" y1="40.4" x2="15.5" y2="44.1"></line>
					</g>
				</g>
			</g>
			<g>
				<g>
					<g>
						
							<rect x="7.1" y="35.1" transform="matrix(0.2588 -0.9659 0.9659 0.2588 -34.4246 39.61)" style="fill:#193651;" width="3.1" height="14.3"></rect>
					</g>
				</g>
			</g>
		</g>
		<g>
			<g>
				<g>
					<g>
						<line style="fill:#FFFFFF;" x1="63.2" y1="4.9" x2="59.4" y2="18.7"></line>
					</g>
				</g>
			</g>
			<g>
				<g>
					<g>
						
							<rect x="54.1" y="10.3" transform="matrix(0.2588 -0.9659 0.9659 0.2588 34.0307 67.9649)" style="fill:#193651;" width="14.3" height="3.1"></rect>
					</g>
				</g>
			</g>
		</g>
	</g>
	<g>
		<g>
			<g>
				<g>
					<g>
						<line style="fill:#FFFFFF;" x1="69" y1="83.5" x2="69" y2="80.4"></line>
					</g>
				</g>
			</g>
			<g>
				<g>
					<g>
						<rect x="67.4" y="80.4" style="fill:#193651;" width="3.1" height="3.1"></rect>
					</g>
				</g>
			</g>
		</g>
		<g>
			<g>
				<g>
					<g>
						<line style="fill:#FFFFFF;" x1="79" y1="83.5" x2="79" y2="80.4"></line>
					</g>
				</g>
			</g>
			<g>
				<g>
					<g>
						<rect x="77.4" y="80.4" style="fill:#193651;" width="3.1" height="3.1"></rect>
					</g>
				</g>
			</g>
		</g>
	</g>
	<g>
		<g>
			<g>
				<g>
					<g>
						<line style="fill:#FFFFFF;" x1="45" y1="59.5" x2="45" y2="56.4"></line>
					</g>
				</g>
			</g>
			<g>
				<g>
					<g>
						<rect x="43.4" y="56.4" style="fill:#193651;" width="3.1" height="3.1"></rect>
					</g>
				</g>
			</g>
		</g>
		<g>
			<g>
				<g>
					<g>
						<line style="fill:#FFFFFF;" x1="55" y1="59.5" x2="55" y2="56.4"></line>
					</g>
				</g>
			</g>
			<g>
				<g>
					<g>
						<rect x="53.5" y="56.4" style="fill:#193651;" width="3.1" height="3.1"></rect>
					</g>
				</g>
			</g>
		</g>
	</g>
	<g>
		<g>
			<g>
				<g>
					<g>
						<line style="fill:#FFFFFF;" x1="21" y1="83.5" x2="21" y2="80.4"></line>
					</g>
				</g>
			</g>
			<g>
				<g>
					<g>
						<rect x="19.5" y="80.4" style="fill:#193651;" width="3.1" height="3.1"></rect>
					</g>
				</g>
			</g>
		</g>
		<g>
			<g>
				<g>
					<g>
						<line style="fill:#FFFFFF;" x1="31" y1="83.5" x2="31" y2="80.4"></line>
					</g>
				</g>
			</g>
			<g>
				<g>
					<g>
						<rect x="29.5" y="80.4" style="fill:#193651;" width="3.1" height="3.1"></rect>
					</g>
				</g>
			</g>
		</g>
	</g>
</g>
</svg>