<svg xmlns="http://www.w3.org/2000/svg" xmlns:xlink="http://www.w3.org/1999/xlink" x="0px" y="0px" viewBox="0 0 100 100" style="enable-background:new 0 0 100 100;" xml:space="preserve">
<path style="fill:#ffffff;" d="M79.1,57.6c0.5-0.5,0.9-1.1,1.4-1.6l2,4.4l17.6-7.9L85.4,20l-17.6,7.9l1.1,2.4l-3-0.8v0  c0,0-0.1,0-0.2-0.1L64.1,29c-0.5-0.1-0.9-0.2-1.4-0.2c-4.6-0.8-13.1-1.5-18.5,2.2c-0.5,0.4-1.1,0.7-1.6,1c-1.5-1.1-3.2-1.5-4.9-1  l-7.1,1.8l-0.5-0.3l2.1-4.6L14.6,20L0,52.5l17.6,7.9l1.9-4.3c0.9,1.3,1.9,2.6,3,3.6c-0.8,1.1-1.1,2.3-0.9,3.6c0.3,2.5,2.5,4.3,5,4.3  c0.2,0,0.5,0,0.7,0c0.4-0.1,0.8-0.2,1.2-0.4c0,0.3,0,0.7,0,1c0.4,2.5,2.5,4.3,5,4.3c0.2,0,0.5,0,0.7-0.1c0.4-0.1,0.8-0.2,1.2-0.4  c0,0.3,0,0.7,0,1c0.3,2.5,2.5,4.3,5,4.3c0.2,0,0.5,0,0.7-0.1c1.5-0.2,2.8-1.1,3.5-2.3l7.1,4.3c1.7,1,4,0.5,5-1.2c1-1.7,0.5-4-1.2-5  l-0.1-0.1c0.4-0.1,0.8-0.3,1.2-0.5l3.7,2.2c0.6,0.3,1.2,0.5,1.9,0.5c1.3,0,2.5-0.7,3.1-1.8c0.5-0.8,0.6-1.8,0.4-2.8  c-0.2-0.9-0.8-1.7-1.7-2.2l-0.8-0.5c0.3-0.2,0.5-0.4,0.8-0.7l3.3,2c0.6,0.3,1.2,0.5,1.9,0.5c1.3,0,2.5-0.7,3.1-1.8  c1-1.7,0.5-3.9-1.2-4.9l0.9-0.6l1.5,0.9c0.6,0.3,1.2,0.5,1.9,0.5c1.3,0,2.5-0.7,3.1-1.8c0.8-1.3,0.6-2.9-0.2-4.1  c0.2-0.1,0.3-0.3,0.5-0.4L79.1,57.6z M15.9,56.1L4.2,50.9l12-26.6l11.7,5.3L15.9,56.1z M83.8,24.3l12,26.6l-11.7,5.3l-12-26.6  L83.8,24.3z M46.7,33c0.3-0.2,0.7-0.3,1.1-0.4c0.4-0.1,0.8-0.3,1.2-0.4c0.4-0.1,0.7-0.2,1.1-0.3c0.5-0.1,0.9-0.2,1.4-0.2  c0.3,0,0.6-0.1,1-0.1c0.7-0.1,1.5-0.1,2.2-0.1c0,0,0.1,0,0.1,0c0,0,0,0,0,0c2.8,0,5.5,0.3,7.4,0.6l0.1,0c1.4,0.2,2.4,0.5,2.7,0.5  l5.4,1.4l0.2-0.1l8.4,18.7c-0.6,1-1.3,1.9-2.2,2.8l-0.3,0.3c-0.3,0.3-0.5,0.5-0.8,0.7L54.2,43.5c-0.4-0.3-0.8-0.6-1.3-0.8  c-0.5-0.1-0.9-0.2-1.4-0.3c0,0,0,0,0,0c-0.1,0-0.3,0-0.4-0.1c-0.1,0-0.3,0-0.4-0.1C50.4,42.1,50,42,49.6,42c-0.1,0-0.3,0-0.4,0  c-0.4,0-0.7,0-1.1,0c-0.1,0-0.2,0-0.3,0c-0.9,0.1-1.6,0.2-2.3,0.5c-0.1,0-0.1,0-0.2,0.1c-0.3,0.1-0.6,0.2-0.8,0.3  c-0.1,0-0.2,0.1-0.3,0.1c-0.2,0.1-0.5,0.2-0.7,0.3c-0.4,0.2-0.7,0.3-1.1,0.5c-3.5,1.6-6.3,1.6-8,0.9c-0.4-0.1-0.6-0.3-0.9-0.5  c-0.1-0.1-0.2-0.1-0.2-0.2c-0.1-0.1-0.1-0.2-0.2-0.2c-0.1-0.2-0.3-0.4-0.3-0.6c-0.2-0.4-1.2-3.9,0.5-4.3c1-0.2,6.7-1.6,11.5-4.8  C45.4,33.6,46,33.3,46.7,33z M27,65.3c-1.5,0.2-2.9-0.8-3.1-2.3c-0.1-0.7,0.1-1.4,0.5-2c0.4-0.6,1.1-1,1.8-1.1c0.1,0,0.3,0,0.4,0  c1.3,0,2.5,1,2.7,2.3C29.5,63.7,28.4,65.1,27,65.3z M33.9,70.2c-1.5,0.2-2.9-0.8-3.1-2.3c-0.1-0.7,0.1-1.4,0.5-2  c0.4-0.6,1.1-1,1.8-1.1c0.1,0,0.3,0,0.4,0c1.3,0,2.5,1,2.7,2.3C36.4,68.7,35.4,70,33.9,70.2z M40.9,75.2c-1.5,0.2-2.9-0.8-3.1-2.3  c-0.1-0.7,0.1-1.4,0.5-2c0.4-0.6,1.1-1,1.8-1.1c0.1,0,0.3,0,0.4,0c1.3,0,2.5,1,2.7,2.3C43.4,73.6,42.4,75,40.9,75.2z"></path>
</svg>