<svg xmlns="http://www.w3.org/2000/svg" xmlns:xlink="http://www.w3.org/1999/xlink" x="0px" y="0px"
	 viewBox="0 0 100 100" style="enable-background:new 0 0 100 100;" xml:space="preserve">
<g>
	<g>
		<rect x="83.2" y="32.1" style="fill:#FD8369;" width="3.3" height="58.8"/>
		<rect x="86.5" y="32.1" style="fill:#EA6552;" width="3.3" height="58.8"/>
		<rect x="89.9" y="32.1" style="fill:#E24F3B;" width="3.3" height="58.8"/>
		<polygon style="fill:#FFFFFF;" points="93.2,32.1 89.8,26.4 86.5,26.4 83.2,32.1 		"/>
		<polygon style="fill:#E6E5E5;" points="93.2,32.1 89.9,32.1 88.7,26.4 89.8,26.4 		"/>
		<polygon style="fill:#343B43;" points="89.8,26.4 88.2,23.5 86.5,26.4 		"/>
		<rect x="89.9" y="90.9" style="fill:#E6E5E5;" width="3.3" height="3.3"/>
		<rect x="83.2" y="90.9" style="fill:#FFFFFF;" width="6.6" height="3.3"/>
		<path style="fill:#343B43;" d="M93.2,95v-0.8h-3.3V95c0,1.3-0.5,2.5-1.4,3.5c-0.5,0.5-1.2,0.9-1.9,1.2c0.5,0.2,1.1,0.3,1.7,0.3
			c1.3,0,2.5-0.5,3.5-1.5C92.7,97.6,93.2,96.3,93.2,95z"/>
		<path style="fill:#495057;" d="M89.8,95v-0.8h-6.6V95c0,1.3,0.5,2.5,1.5,3.5c0.5,0.5,1.2,0.9,1.9,1.2c0.7-0.2,1.3-0.6,1.9-1.2
			C89.4,97.6,89.8,96.3,89.8,95z"/>
	</g>
	<g>
		<path style="fill:#343B43;" d="M10.1,6.6c-0.8,0-1.7,0.3-2.3,1c-0.6,0.6-1,1.5-1,2.3v86.8c0,0.8,0.3,1.7,1,2.3
			c0.6,0.6,1.5,1,2.3,1H75c0.8,0,1.7-0.3,2.3-1c0.6-0.6,1-1.5,1-2.3V9.9c0-0.8-0.3-1.7-1-2.3c-0.6-0.6-1.5-1-2.3-1H10.1z"/>
		<rect x="14.5" y="6.6" style="fill:#FFFFFF;" width="56" height="85.7"/>
		<g>
			<rect x="20.4" y="60.5" style="fill:#CCCBCA;" width="44.3" height="3.7"/>
			<rect x="20.4" y="67.9" style="fill:#CCCBCA;" width="44.3" height="3.7"/>
			<rect x="20.4" y="75.3" style="fill:#CCCBCA;" width="22.1" height="3.7"/>
			<rect x="30.4" y="23.5" style="fill:#343B43;" width="24.2" height="3.7"/>
			<g>
				<g>
					<polygon style="fill:#EA6552;" points="23,54.6 20.4,52 32,40.4 37.1,45.6 47.4,35.3 52.6,40.4 61.5,31.5 64.1,34.1 52.6,45.7 
						47.4,40.5 37.1,50.8 32,45.7 					"/>
					<polygon style="fill:#EA6552;" points="64.7,39.7 61,39.7 61,34.6 55.9,34.6 55.9,30.9 64.7,30.9 					"/>
				</g>
			</g>
		</g>
		<path style="fill:#343B43;" d="M49.1,6.6c0-3.6-3-6.6-6.6-6.6c-3.6,0-6.6,3-6.6,6.6h-5.5v7.7h24.2V6.6H49.1z M39.7,6.6
			c0-1.6,1.3-2.8,2.8-2.8c1.6,0,2.8,1.3,2.8,2.8H39.7z"/>
	</g>
</g>
</svg>
