<svg xmlns="http://www.w3.org/2000/svg" xmlns:xlink="http://www.w3.org/1999/xlink" x="0px" y="0px" viewBox="0 0 100 100" style="enable-background:new 0 0 100 100;" xml:space="preserve">
<g>
	<g>
		<rect x="49.1" y="5.1" style="fill:#495057;" width="1.9" height="78"></rect>
		<path style="fill:#343B43;" d="M48.7,5.1V1.3c0-0.3,0.1-0.7,0.4-0.9C49.3,0.2,49.7,0,50,0c0.4,0,0.7,0.1,0.9,0.4    c0.2,0.2,0.4,0.6,0.4,0.9v3.8H48.7z"></path>
		<path style="fill:#343B43;" d="M58,100c-5.1,0-9.3-4.2-9.3-9.3V83h2.6v7.6c0,3.7,3,6.7,6.7,6.7c3.7,0,6.7-3,6.7-6.7    c0-0.7,0.6-1.3,1.3-1.3c0.7,0,1.3,0.6,1.3,1.3C67.3,95.8,63.2,100,58,100z"></path>
	</g>
	<g>
		<path style="fill:#EA6552;" d="M49.7,7.3C38,7.6,26.3,27.5,26.3,46.4c-2.7-2.6-7-4.2-11.9-4.2c-4.7,0-8.8,1.6-11.6,4    C7.1,24.1,26.4,7.4,49.7,7.3z"></path>
		<path style="fill:#E24F3B;" d="M97.2,46.1c-2.7-2.4-6.9-4-11.6-4c-4.8,0-9.1,1.7-11.9,4.2C73.7,27.5,62,7.6,50.3,7.3    C73.6,7.4,92.9,24.1,97.2,46.1z"></path>
		<path style="fill:#E24F3B;" d="M50,7.3v39.1c-2.7-2.6-7-4.3-11.9-4.3s-9.1,1.7-11.9,4.3l0,0C26.3,27.5,38,7.6,49.7,7.3    C49.8,7.3,49.9,7.3,50,7.3z"></path>
		<path style="fill:#EA6552;" d="M73.7,46.4L73.7,46.4c-2.7-2.6-7-4.2-11.9-4.2c-4.8,0-9.1,1.7-11.9,4.3V7.3c0.1,0,0.2,0,0.3,0    C62,7.6,73.7,27.5,73.7,46.4z"></path>
	</g>
</g>
</svg>