<svg xmlns="http://www.w3.org/2000/svg" xmlns:xlink="http://www.w3.org/1999/xlink" x="0px" y="0px" viewBox="0 0 100 100" style="enable-background:new 0 0 100 100;" xml:space="preserve">
<g>
	<g>
		<path style="fill:#ffffff;" d="M39.5,84.6c-4.2-2-8.7-3.3-13.3-3.8c0.2-1.1,0.3-2.2,0.5-3.3c1-0.7,1.8-1.6,1.8-2.4    c0.1-1,0.2-2,0.4-3c0.1,0.2,0.3,0.3,0.5,0.3c0.5,0.1,0.9-0.3,1-0.8l0.5-4.7c0-0.5-0.3-0.9-0.8-1c-0.2,0-0.4,0-0.5,0.1    c0.1-0.9,0.2-1.8,0.3-2.7c0.1-1.2,0.7-4.5-1.7-6.6c-3.4-3.3-10.9-3.3-14.3,0c-2.3,2.1-1.7,5.3-1.7,6.6c0.1,0.9,0.2,1.8,0.3,2.7    c-0.2-0.1-0.3-0.1-0.5-0.1c-0.5,0-0.8,0.5-0.8,1l0.5,4.7c0.1,0.5,0.5,0.8,1,0.8c0.2,0,0.4-0.1,0.6-0.3c0.1,1,0.2,2,0.4,3    c0.1,0.8,0.8,1.8,1.8,2.4c0.2,1.1,0.3,2.2,0.5,3.3c-4.6,0.5-9.1,1.8-13.3,3.8c-1.4,0.7-2.3,2.6-2.2,4c0.2,1.6,0.3,3.3,0.5,4.9    c0.1,1.4,1.4,2.8,2.7,3.1c11.5,1.9,23.3,1.9,34.8,0c1.4-0.3,2.6-1.7,2.7-3.1c0.2-1.6,0.3-3.3,0.5-4.9    C41.8,87.1,40.8,85.3,39.5,84.6z"></path>
		<path style="fill:#ffffff;" d="M97.4,84.6c-4.2-2-8.7-3.3-13.3-3.8c0.2-1.1,0.3-2.2,0.5-3.3c1-0.7,1.8-1.6,1.8-2.4    c0.1-1,0.2-2,0.4-3c0.1,0.2,0.3,0.3,0.5,0.3c0.5,0.1,0.9-0.3,1-0.8l0.5-4.7c0-0.5-0.3-0.9-0.8-1c-0.2,0-0.4,0-0.5,0.1    c0.1-0.9,0.2-1.8,0.3-2.7c0.1-1.2,0.7-4.5-1.7-6.6c-3.4-3.3-10.9-3.3-14.3,0c-2.3,2.1-1.7,5.3-1.7,6.6c0.1,0.9,0.2,1.8,0.3,2.7    c-0.2-0.1-0.3-0.1-0.5-0.1c-0.5,0-0.8,0.5-0.8,1l0.5,4.7c0,0.5,0.5,0.8,1,0.8c0.2,0,0.4-0.1,0.6-0.3c0.1,1,0.2,2,0.4,3    c0.1,0.8,0.8,1.8,1.8,2.4c0.2,1.1,0.3,2.2,0.5,3.3c-4.6,0.5-9.1,1.8-13.3,3.8c-1.4,0.7-2.3,2.6-2.2,4c0.2,1.6,0.3,3.3,0.5,4.9    c0.2,1.4,1.4,2.8,2.7,3.1c11.5,1.9,23.3,1.9,34.8,0c1.4-0.3,2.6-1.7,2.7-3.1c0.2-1.6,0.3-3.3,0.5-4.9    C99.7,87.1,98.8,85.3,97.4,84.6z"></path>
	</g>
	<path style="fill:#ffffff;" d="M68.5,32.3c-4.2-2-8.7-3.3-13.3-3.8c0.2-1.1,0.3-2.2,0.5-3.3c1-0.7,1.8-1.6,1.8-2.4   c0.1-1,0.2-2,0.4-3c0.1,0.1,0.3,0.2,0.6,0.3c0.5,0,0.9-0.3,1-0.8l0.5-4.7c0.1-0.5-0.3-0.9-0.8-1c-0.2,0-0.4,0-0.5,0.1   c0.1-0.9,0.2-1.8,0.3-2.7c0.1-1.2,0.7-4.5-1.7-6.6c-3.4-3.3-10.9-3.3-14.3,0c-2.3,2.1-1.7,5.3-1.7,6.6c0.1,0.9,0.2,1.8,0.3,2.7   c-0.2-0.1-0.3-0.1-0.5-0.1c-0.5,0.1-0.8,0.5-0.8,1l0.5,4.7c0,0.5,0.5,0.8,1,0.8c0.2,0,0.4-0.1,0.6-0.3c0.1,1,0.2,2,0.3,3   c0.1,0.8,0.8,1.8,1.8,2.4c0.2,1.1,0.3,2.2,0.5,3.3c-4.6,0.6-9.1,1.8-13.3,3.8c-1.4,0.7-2.3,2.6-2.2,4c0.2,1.6,0.3,3.3,0.5,4.9   c0.1,1.4,1.4,2.8,2.7,3.1c11.5,1.9,23.3,1.9,34.8,0c1.4-0.3,2.6-1.7,2.7-3.1c0.2-1.6,0.3-3.3,0.5-4.9C70.8,34.9,69.8,33,68.5,32.3z   "></path>
	<path style="fill:#ffffff;" d="M63.8,72.3l-11.3-6.5v-13c0-1.4-1.1-2.5-2.5-2.5c-1.4,0-2.5,1.1-2.5,2.5v13l-11.3,6.5   c-1.2,0.7-1.6,2.2-0.9,3.4c0.5,0.8,1.3,1.3,2.2,1.3c0.4,0,0.9-0.1,1.3-0.3L50,70.1l11.3,6.5c0.4,0.2,0.8,0.3,1.3,0.3   c0.9,0,1.7-0.5,2.2-1.3C65.4,74.5,65,73,63.8,72.3z"></path>
</g>
</svg>