<svg xmlns="http://www.w3.org/2000/svg" xmlns:xlink="http://www.w3.org/1999/xlink" x="0px" y="0px" viewBox="0 0 100 100" style="enable-background:new 0 0 100 100;" xml:space="preserve">
<g>
	<path style="fill:#ffffff;" d="M33.2,83.7h1.4v2.5h-1.4v2.6h1.4v2.4h-1.3c0.2,3.2,3.3,5.8,7.2,6c0.7,1.6,2.3,2.8,4.2,2.8h10.6   c1.9,0,3.5-1.1,4.2-2.8c3.9-0.2,7-2.8,7.2-6h-1.2v-2.4h1.3v-2.6h-1.3v-2.5h1.3V81H33.2V83.7z"></path>
	<path style="fill:#ffffff;" d="M81.8,31.8C81.8,14.2,67.6,0,50,0C32.4,0,18.2,14.2,18.2,31.8c0,1,0.2,2,0.3,3   c-0.3,0.3,0.5,12.7,12.4,28.1c3.5,4.7,2.1,14,2,14c4.9,0,9.9,0,14.8,0c1.5,0,3,0,4.5,0c4.9,0,9.9,0,14.8,0c0,0-1.5-9.4,2-14   c12-15.5,12.7-27.8,12.5-28.1C81.6,33.9,81.8,32.9,81.8,31.8z M67.8,21.1c-3.2-5.3-8.8-8.9-14.9-9.5c-1.5-0.2-2.5-1.5-2.4-2.9   c0.2-1.5,1.5-2.5,2.9-2.4c7.7,0.9,14.8,5.4,18.9,12.1c0.8,1.3,0.4,2.9-0.9,3.7c-0.4,0.3-0.9,0.4-1.4,0.4   C69.2,22.4,68.3,22,67.8,21.1z M73.5,32.8c-0.1,0-0.1,0-0.2,0c-1.4,0-2.6-1.1-2.7-2.5c0-0.7-0.1-1.5-0.3-2.2   c-0.3-1.5,0.7-2.8,2.2-3.1c1.4-0.3,2.8,0.7,3.1,2.2c0.2,0.9,0.3,1.8,0.3,2.8C76.1,31.4,75,32.7,73.5,32.8z"></path>
</g>
</svg>