<svg xmlns="http://www.w3.org/2000/svg" xmlns:xlink="http://www.w3.org/1999/xlink" x="0px" y="0px" viewBox="0 0 100 100" style="enable-background:new 0 0 100 100;" xml:space="preserve">
<style type="text/css">
	.st0aa{fill:url(#SVGID_GRAD4_1_);}
	.st1ab{fill:url(#SVGID_GRAD4_2_);}
	.st2ac{fill:url(#SVGID_GRAD4_3_);}
	.st3ad{fill:url(#SVGID_GRAD4_4_);}
	.st4ae{fill:url(#SVGID_GRAD4_5_);}
	.st5af{fill:url(#SVGID_GRAD4_6_);}
	.st6ag{fill:url(#SVGID_GRAD4_7_);}
	.st7ah{fill:url(#SVGID_GRAD4_8_);}
	.st8ai{fill:url(#SVGID_GRAD4_9_);}
</style>
<g id="loan_2_">
	<g>
		<g>
			<linearGradient id="SVGID_GRAD4_1_" gradientUnits="userSpaceOnUse" x1="102.5936" y1="79.5931" x2="28.375" y2="-7.1255">
				<stop offset="0" style="stop-color:#703ECD"></stop>
				<stop offset="1" style="stop-color:#26B1FF"></stop>
			</linearGradient>
			<path class="st0aa" d="M75.8,48.4H61.6c-0.6,0-1.1-0.1-1.7-0.2l-13.2-2.9h-7.6c-0.9,0-1.6-0.7-1.6-1.6c0-0.9,0.7-1.6,1.6-1.6h7.8     c0.1,0,0.2,0,0.3,0l13.4,3c0.3,0.1,0.7,0.1,1,0.1h14.2c1.3,0,2.3-1.1,2.3-2.3c0-1.3-1.1-2.3-2.3-2.3c-0.9,0-1.6-0.7-1.6-1.6     c0-0.9,0.7-1.6,1.6-1.6h3.1c1.3,0,2.3-1.1,2.3-2.3c0-1.3-1.1-2.3-2.3-2.3h-2.3c-0.9,0-1.6-0.7-1.6-1.6c0-0.9,0.7-1.6,1.6-1.6h3.9     c1.3,0,2.3-1.1,2.3-2.3c0-1.3-1.1-2.3-2.3-2.3h-3.1c-0.9,0-1.6-0.7-1.6-1.6s0.7-1.6,1.6-1.6h1.6c1.3,0,2.3-1.1,2.3-2.3     s-1.1-2.3-2.3-2.3h-18c-0.9,0-1.6-0.7-1.6-1.6c0-0.9,0.7-1.6,1.6-1.6h18c3,0,5.5,2.5,5.5,5.5c0,1.2-0.4,2.3-1,3.2     c1.5,1,2.6,2.7,2.6,4.6s-1,3.7-2.6,4.6c0.6,0.9,1,2,1,3.2c0,2.4-1.6,4.5-3.8,5.2c0.4,0.8,0.7,1.7,0.7,2.6     C81.2,46,78.8,48.4,75.8,48.4z"></path>
		</g>
		<g>
			<linearGradient id="SVGID_GRAD4_2_" gradientUnits="userSpaceOnUse" x1="104.0934" y1="78.3095" x2="29.8748" y2="-8.4091">
				<stop offset="0" style="stop-color:#703ECD"></stop>
				<stop offset="1" style="stop-color:#26B1FF"></stop>
			</linearGradient>
			<path class="st1ab" d="M40.9,20.3h-3.4c-0.9,0-1.6-0.7-1.6-1.6s0.7-1.6,1.6-1.6h3.4c0.4,0,0.8-0.2,1.1-0.5l7.1-7.1     c1.1-1.1,2.5-1.8,4-2.1l6-1.2c0.9-0.2,1.7,0.4,1.8,1.2c0.2,0.8-0.4,1.7-1.2,1.8l-6,1.2c-0.9,0.2-1.7,0.6-2.4,1.3l-7.1,7.1     C43.3,19.8,42.1,20.3,40.9,20.3z"></path>
		</g>
		<g>
			<linearGradient id="SVGID_GRAD4_3_" gradientUnits="userSpaceOnUse" x1="84.3935" y1="95.1697" x2="10.1749" y2="8.4511">
				<stop offset="0" style="stop-color:#703ECD"></stop>
				<stop offset="1" style="stop-color:#26B1FF"></stop>
			</linearGradient>
			<path class="st2ac" d="M37.5,50H21.9c-0.9,0-1.6-0.7-1.6-1.6c0-0.9,0.7-1.6,1.6-1.6h14.1V15.6H7.8c-0.9,0-1.6-0.7-1.6-1.6     c0-0.9,0.7-1.6,1.6-1.6h29.7c0.9,0,1.6,0.7,1.6,1.6v34.4C39.1,49.3,38.4,50,37.5,50z"></path>
		</g>
		<g>
			<linearGradient id="SVGID_GRAD4_4_" gradientUnits="userSpaceOnUse" x1="79.6972" y1="99.1891" x2="5.4786" y2="12.4705">
				<stop offset="0" style="stop-color:#703ECD"></stop>
				<stop offset="1" style="stop-color:#26B1FF"></stop>
			</linearGradient>
			<circle class="st3ad" cx="28.9" cy="39.8" r="2.3"></circle>
		</g>
	</g>
	<g>
		<g>
			<linearGradient id="SVGID_GRAD4_5_" gradientUnits="userSpaceOnUse" x1="118.1329" y1="66.2937" x2="43.9143" y2="-20.4249">
				<stop offset="0" style="stop-color:#703ECD"></stop>
				<stop offset="1" style="stop-color:#26B1FF"></stop>
			</linearGradient>
			<path class="st4ae" d="M71.9,17.2h-9.4c-0.7,0-1.4-0.5-1.5-1.2L57.8,1.9c-0.1-0.5,0-0.9,0.3-1.3C58.5,0.2,58.9,0,59.4,0h7.8     c0.3,0,0.6,0.1,0.9,0.3c3.6,2.4,5.8,0.2,5.8,0.2c0.5-0.5,1.2-0.6,1.9-0.3c0.6,0.3,0.9,1,0.8,1.7L73.4,16     C73.2,16.7,72.6,17.2,71.9,17.2z M63.8,14.1h6.9l2.2-9.7c-1.7,0.3-3.8,0.2-6-1.2h-5.4L63.8,14.1z"></path>
		</g>
		<g>
			<linearGradient id="SVGID_GRAD4_6_" gradientUnits="userSpaceOnUse" x1="83.4276" y1="95.9986" x2="9.2089" y2="9.28">
				<stop offset="0" style="stop-color:#703ECD"></stop>
				<stop offset="1" style="stop-color:#26B1FF"></stop>
			</linearGradient>
			<path class="st5af" d="M65.6,100c-17.9,0-28.1-9.1-28.1-25c0-8.5,6.5-18.4,19.3-29.3c0.7-0.6,1.6-0.5,2.2,0.2     c0.6,0.7,0.5,1.6-0.2,2.2C46.9,58.2,40.6,67.5,40.6,75c0,14.1,8.9,21.9,25,21.9s25-7.8,25-21.9c0-9.1-8.6-19.9-16.7-27     c-0.6-0.6-0.7-1.6-0.1-2.2c0.6-0.6,1.6-0.7,2.2-0.1c4.2,3.7,17.7,16.6,17.7,29.3C93.7,90.9,83.5,100,65.6,100z"></path>
		</g>
		<g>
			<g>
				<linearGradient id="SVGID_GRAD4_7_" gradientUnits="userSpaceOnUse" x1="85.0679" y1="94.5926" x2="10.8493" y2="7.874">
					<stop offset="0" style="stop-color:#703ECD"></stop>
					<stop offset="1" style="stop-color:#26B1FF"></stop>
				</linearGradient>
				<path class="st6ag" d="M67.2,82.8h-3.1c-0.2,0-4.1,0-6.1-4c-0.4-0.8-0.1-1.7,0.7-2.1c0.8-0.4,1.7-0.1,2.1,0.7      c1.1,2.2,3.3,2.3,3.3,2.3h3.1c1.7,0,3.1-1.4,3.1-3.1s-1.4-3.1-3.1-3.1h-3.1c-3.4,0-6.2-2.8-6.2-6.2s2.8-6.2,6.2-6.2h3.1      c0.2,0,4.1,0,6.1,4c0.4,0.8,0.1,1.7-0.7,2.1s-1.7,0.1-2.1-0.7c-1.1-2.2-3.3-2.3-3.3-2.3h-3.1c-1.7,0-3.1,1.4-3.1,3.1      c0,1.7,1.4,3.1,3.1,3.1h3.1c3.4,0,6.2,2.8,6.2,6.2S70.6,82.8,67.2,82.8z"></path>
			</g>
			<g>
				<linearGradient id="SVGID_GRAD4_8_" gradientUnits="userSpaceOnUse" x1="90.471" y1="89.9682" x2="16.2524" y2="3.2496">
					<stop offset="0" style="stop-color:#703ECD"></stop>
					<stop offset="1" style="stop-color:#26B1FF"></stop>
				</linearGradient>
				<path class="st7ah" d="M65.6,64.1c-0.9,0-1.6-0.7-1.6-1.6v-3.1c0-0.9,0.7-1.6,1.6-1.6c0.9,0,1.6,0.7,1.6,1.6v3.1      C67.2,63.4,66.5,64.1,65.6,64.1z"></path>
			</g>
			<g>
				<linearGradient id="SVGID_GRAD4_9_" gradientUnits="userSpaceOnUse" x1="79.6647" y1="99.2169" x2="5.4461" y2="12.4983">
					<stop offset="0" style="stop-color:#703ECD"></stop>
					<stop offset="1" style="stop-color:#26B1FF"></stop>
				</linearGradient>
				<path class="st8ai" d="M65.6,85.9c-0.9,0-1.6-0.7-1.6-1.6v-3.1c0-0.9,0.7-1.6,1.6-1.6c0.9,0,1.6,0.7,1.6,1.6v3.1      C67.2,85.2,66.5,85.9,65.6,85.9z"></path>
			</g>
		</g>
	</g>
</g>
</svg>