<svg xmlns="http://www.w3.org/2000/svg" xmlns:xlink="http://www.w3.org/1999/xlink" x="0px" y="0px" viewBox="0 0 100 100" style="enable-background:new 0 0 100 100;" xml:space="preserve">
<style type="text/css">
	.st0k{fill:url(#SVGID_GRAD2_1_);}
	.st1l{fill:url(#SVGID_GRAD2_2_);}
	.st2m{fill:url(#SVGID_GRAD2_3_);}
	.st3n{fill:url(#SVGID_GRAD2_4_);}
	.st4o{fill:url(#SVGID_GRAD2_5_);}
	.st5p{fill:url(#SVGID_GRAD2_6_);}
	.st6q{fill:url(#SVGID_GRAD2_7_);}
	.st7r{fill:url(#SVGID_GRAD2_8_);}
	.st8s{fill:url(#SVGID_GRAD2_9_);}
	.st9t{fill:url(#SVGID_GRAD2_10_);}
</style>
<g id="strategy_investments_1_">
	<g>
		<g>
			<linearGradient id="SVGID_GRAD2_1_" gradientUnits="userSpaceOnUse" x1="98.3702" y1="86.2726" x2="23.891" y2="13.8767">
				<stop offset="0" style="stop-color:#703ECD"></stop>
				<stop offset="1" style="stop-color:#26B1FF"></stop>
			</linearGradient>
			<path class="st0k" d="M67.2,53.1c-0.3,0-0.6-0.1-0.8-0.2c-0.7-0.5-1-1.4-0.5-2.2c1.5-2.3,1.3-5.9-0.4-8.2     c-0.5-0.7-14-18.1-17.6-25.2c-1.4-2.7-2.9-8.3-1.4-12.5c0.1-0.4,0.3-0.7,0.4-1c-9.1,1.9-29,8.7-39.3,32.7     c-0.3,0.8-1.3,1.2-2.1,0.8c-0.8-0.3-1.2-1.3-0.8-2.1C19.1,2,51.2,0,51.5,0c0.7,0,1.4,0.5,1.6,1.2S52.9,2.7,52.2,3     c-1.3,0.6-2.2,1.5-2.7,2.9c-1.2,3.2,0.1,7.9,1.2,10c3.4,6.8,17.2,24.5,17.3,24.7c2.5,3.4,2.7,8.3,0.5,11.7     C68.2,52.9,67.7,53.1,67.2,53.1z"></path>
		</g>
		<g>
			<linearGradient id="SVGID_GRAD2_2_" gradientUnits="userSpaceOnUse" x1="92.4043" y1="92.4101" x2="17.9252" y2="20.0143">
				<stop offset="0" style="stop-color:#703ECD"></stop>
				<stop offset="1" style="stop-color:#26B1FF"></stop>
			</linearGradient>
			<path class="st1l" d="M62.5,56.2c-0.3,0-0.6-0.1-0.9-0.3l-12.9-8.6c-3,3.1-8,3.7-11.9,1.2l-1.3-0.8c-4.2-2.7-5.3-8.3-2.5-12.7     c0.5-0.7,1.4-0.9,2.2-0.5c0.7,0.5,0.9,1.4,0.5,2.2c-1.9,2.9-1.2,6.5,1.6,8.3l1.3,0.8c3,1.9,6.8,1.3,8.6-1.5     c0.2-0.4,0.6-0.6,1-0.7c0.4-0.1,0.8,0,1.2,0.2l14.1,9.4c0.7,0.5,0.9,1.4,0.4,2.2C63.5,56,63,56.2,62.5,56.2z"></path>
		</g>
		<g>
			<linearGradient id="SVGID_GRAD2_3_" gradientUnits="userSpaceOnUse" x1="64.0318" y1="121.5991" x2="-10.4474" y2="49.2033">
				<stop offset="0" style="stop-color:#703ECD"></stop>
				<stop offset="1" style="stop-color:#26B1FF"></stop>
			</linearGradient>
			<path class="st2m" d="M37.5,87.5H17.2c-0.9,0-1.6-0.7-1.6-1.6s0.7-1.6,1.6-1.6h20.3c0.9,0,1.6,0.7,1.6,1.6S38.4,87.5,37.5,87.5z"></path>
		</g>
		<g>
			<linearGradient id="SVGID_GRAD2_4_" gradientUnits="userSpaceOnUse" x1="83.9786" y1="101.0784" x2="9.4994" y2="28.6825">
				<stop offset="0" style="stop-color:#703ECD"></stop>
				<stop offset="1" style="stop-color:#26B1FF"></stop>
			</linearGradient>
			<path class="st3n" d="M12.5,71.9c-0.7,0-1.3-0.5-1.5-1.2l-1.6-6.3c0-0.1-0.1-0.3,0-0.5c0.1-1.4,1.9-35.4,27.4-48.2     c0.8-0.4,1.7-0.1,2.1,0.7c0.4,0.8,0.1,1.7-0.7,2.1C15.3,30,12.7,61,12.5,63.9l1.5,6c0.2,0.8-0.3,1.7-1.1,1.9     C12.8,71.9,12.6,71.9,12.5,71.9z"></path>
		</g>
		<g>
			<linearGradient id="SVGID_GRAD2_5_" gradientUnits="userSpaceOnUse" x1="67.3434" y1="118.1923" x2="-7.1358" y2="45.7964">
				<stop offset="0" style="stop-color:#703ECD"></stop>
				<stop offset="1" style="stop-color:#26B1FF"></stop>
			</linearGradient>
			<path class="st4o" d="M46.9,100H7.8C3.5,100,0,96.5,0,92.2c0-3.8,2.7-6.9,6.3-7.7c0-5.8,0.4-10.6,5.1-15.3c0.6-0.6,1.6-0.6,2.2,0     s0.6,1.6,0,2.2c-4.2,4.2-4.2,8.3-4.2,14.5c0,0.4-0.2,0.8-0.5,1.1s-0.7,0.5-1.1,0.5c-2.6,0-4.7,2.1-4.7,4.7s2.1,4.7,4.7,4.7h39.1     c2.6,0,4.7-2.1,4.7-4.7s-2.1-4.7-4.7-4.7c-0.9,0-1.6-0.7-1.6-1.6c0-6.2,0-10.3-4.2-14.5c-0.4-0.4-0.5-1-0.4-1.5l1.5-6.1v-9.2     c0-0.9,0.7-1.6,1.6-1.6s1.6,0.7,1.6,1.6v9.4c0,0.1,0,0.3,0,0.4l-1.4,5.4c4.2,4.6,4.5,9.1,4.5,14.7c3.6,0.7,6.3,3.9,6.3,7.7     C54.7,96.5,51.2,100,46.9,100z"></path>
		</g>
		<g>
			<linearGradient id="SVGID_GRAD2_6_" gradientUnits="userSpaceOnUse" x1="71.8412" y1="113.565" x2="-2.638" y2="41.1692">
				<stop offset="0" style="stop-color:#703ECD"></stop>
				<stop offset="1" style="stop-color:#26B1FF"></stop>
			</linearGradient>
			<path class="st5p" d="M32.8,71.9H21.9c-0.9,0-1.6-0.7-1.6-1.6s0.7-1.6,1.6-1.6h10.9c0.9,0,1.6,0.7,1.6,1.6S33.7,71.9,32.8,71.9z"></path>
		</g>
	</g>
	<g>
		<g>
			<linearGradient id="SVGID_GRAD2_7_" gradientUnits="userSpaceOnUse" x1="92.9378" y1="91.8613" x2="18.4586" y2="19.4655">
				<stop offset="0" style="stop-color:#703ECD"></stop>
				<stop offset="1" style="stop-color:#26B1FF"></stop>
			</linearGradient>
			<path class="st6q" d="M73.4,100c-4.7,0-9.3-1.2-13.3-3.6c-0.7-0.4-1-1.4-0.6-2.1c0.4-0.7,1.4-1,2.1-0.6c3.5,2.1,7.6,3.1,11.7,3.1     c12.9,0,23.4-10.5,23.4-23.4c0-11.3-8-20.9-19-23c-0.8-0.2-1.4-1-1.2-1.8c0.2-0.8,1-1.4,1.8-1.2C90.9,49.7,100,60.7,100,73.4     C100,88.1,88.1,100,73.4,100z"></path>
		</g>
		<g>
			<g>
				<linearGradient id="SVGID_GRAD2_8_" gradientUnits="userSpaceOnUse" x1="98.92" y1="85.707" x2="24.4408" y2="13.3111">
					<stop offset="0" style="stop-color:#703ECD"></stop>
					<stop offset="1" style="stop-color:#26B1FF"></stop>
				</linearGradient>
				<path class="st7r" d="M73.4,64.1c-0.9,0-1.6-0.7-1.6-1.6v-3.1c0-0.9,0.7-1.6,1.6-1.6s1.6,0.7,1.6,1.6v3.1      C75,63.4,74.3,64.1,73.4,64.1z"></path>
			</g>
			<g>
				<linearGradient id="SVGID_GRAD2_9_" gradientUnits="userSpaceOnUse" x1="86.425" y1="98.5615" x2="11.9458" y2="26.1657">
					<stop offset="0" style="stop-color:#703ECD"></stop>
					<stop offset="1" style="stop-color:#26B1FF"></stop>
				</linearGradient>
				<path class="st8s" d="M73.4,89.1c-0.9,0-1.6-0.7-1.6-1.6v-3.1c0-0.9,0.7-1.6,1.6-1.6s1.6,0.7,1.6,1.6v3.1      C75,88.4,74.3,89.1,73.4,89.1z"></path>
			</g>
			<g>
				<linearGradient id="SVGID_GRAD2_10_" gradientUnits="userSpaceOnUse" x1="92.6702" y1="92.1366" x2="18.191" y2="19.7408">
					<stop offset="0" style="stop-color:#703ECD"></stop>
					<stop offset="1" style="stop-color:#26B1FF"></stop>
				</linearGradient>
				<path class="st9t" d="M75.8,85.9h-4.7c-3.9,0-7-3.2-7-7c0-0.9,0.7-1.6,1.6-1.6s1.6,0.7,1.6,1.6c0,2.2,1.8,3.9,3.9,3.9h4.7      c2.2,0,3.9-1.8,3.9-3.9S77.9,75,75.8,75h-4.7c-3.9,0-7-3.2-7-7s3.2-7,7-7h4.7c2.7,0,5.2,1.6,6.3,4c0.4,0.8,0,1.7-0.7,2.1      c-0.8,0.4-1.7,0-2.1-0.7c-0.7-1.4-2-2.2-3.5-2.2h-4.7c-2.2,0-3.9,1.8-3.9,3.9s1.8,3.9,3.9,3.9h4.7c3.9,0,7,3.2,7,7      S79.7,85.9,75.8,85.9z"></path>
			</g>
		</g>
	</g>
</g>
</svg>