<svg xmlns="http://www.w3.org/2000/svg" xmlns:xlink="http://www.w3.org/1999/xlink" x="0px" y="0px" viewBox="0 0 100 100" style="enable-background:new 0 0 100 100;" xml:space="preserve">
<g>
	<g>
		<g>
			<g>
				<g>
					<path style="fill:#FFFFFF;" d="M83.7,98.4H16.3c-1.1,0-2-0.9-2-2V3.6c0-1.1,0.9-2,2-2h67.3c1.1,0,2,0.9,2,2v92.8       C85.7,97.5,84.8,98.4,83.7,98.4z"></path>
				</g>
			</g>
		</g>
		<g>
			<g>
				<g>
					<path style="fill:#193651;" d="M82.5,100H17.5c-2.6,0-4.7-2.1-4.7-4.7V4.7c0-2.6,2.1-4.7,4.7-4.7h65.1c2.6,0,4.7,2.1,4.7,4.7       v90.6C87.2,97.9,85.1,100,82.5,100z M17.5,3.2c-0.9,0-1.6,0.7-1.6,1.6v90.6c0,0.9,0.7,1.6,1.6,1.6h65.1c0.9,0,1.6-0.7,1.6-1.6       V4.7c0-0.9-0.7-1.6-1.6-1.6H17.5z"></path>
				</g>
			</g>
		</g>
	</g>
	<g>
		<g>
			<g>
				<g>
					<path style="fill:#D3D7DA;" d="M14.3,82.2v12.1c0,2.3,1.8,4.1,4.1,4.1h63.1c2.3,0,4.1-1.8,4.1-4.1V82.2"></path>
				</g>
			</g>
		</g>
		<g>
			<g>
				<g>
					<path style="fill:#193651;" d="M81.6,100H18.4c-3.1,0-5.7-2.5-5.7-5.7V82.2h3.1v12.1c0,1.4,1.1,2.5,2.5,2.5h63.1       c1.4,0,2.5-1.1,2.5-2.5V82.2h3.1v12.1C87.2,97.4,84.7,100,81.6,100z"></path>
				</g>
			</g>
		</g>
	</g>
	<g>
		<g>
			<g>
				<g>
					<path style="fill:#D3D7DA;" d="M85.7,14.6V5.7c0-2.3-1.8-4.1-4.1-4.1H18.4c-2.3,0-4.1,1.8-4.1,4.1v8.9"></path>
				</g>
			</g>
		</g>
		<g>
			<g>
				<g>
					<path style="fill:#193651;" d="M87.2,14.6h-3.1V5.7c0-1.4-1.1-2.5-2.5-2.5H18.4c-1.4,0-2.5,1.1-2.5,2.5v8.9h-3.1V5.7       c0-3.1,2.5-5.7,5.7-5.7h63.1c3.1,0,5.7,2.5,5.7,5.7V14.6z"></path>
				</g>
			</g>
		</g>
	</g>
	<g>
		<g>
			<g>
				<g>
					<line style="fill:#FFFFFF;" x1="46.1" y1="8.1" x2="57" y2="8.1"></line>
				</g>
			</g>
		</g>
		<g>
			<g>
				<g>
					<rect x="46.1" y="6.5" style="fill:#193651;" width="10.9" height="3.1"></rect>
				</g>
			</g>
		</g>
	</g>
	<g>
		<g>
			<g>
				<g>
					<line style="fill:#FFFFFF;" x1="38.3" y1="8.1" x2="41.4" y2="8.1"></line>
				</g>
			</g>
		</g>
		<g>
			<g>
				<g>
					<rect x="38.3" y="6.5" style="fill:#193651;" width="3.1" height="3.1"></rect>
				</g>
			</g>
		</g>
	</g>
	<g>
		<g>
			<g>
				<g>
					<line style="fill:#FFFFFF;" x1="41.3" y1="89.3" x2="58.7" y2="89.3"></line>
				</g>
			</g>
		</g>
		<g>
			<g>
				<g>
					<rect x="41.3" y="87.7" style="fill:#193651;" width="17.4" height="3.1"></rect>
				</g>
			</g>
		</g>
	</g>
	<g>
		<g>
			<g>
				<g>
					<polygon style="fill:#D3D7DA;" points="27.5,73.1 26.6,71.8 42.5,61.2 54.8,69.4 72.5,57.7 73.4,59 54.8,71.3 42.5,63.1             "></polygon>
				</g>
			</g>
		</g>
	</g>
	<g>
		<g>
			<g>
				<g>
					<path style="fill:#27A2DE;" d="M75.8,55.8c2.3,3.6-1.5,7.5-5.2,5.2c-0.3-0.2-0.5-0.4-0.6-0.6c-2.3-3.6,1.5-7.5,5.2-5.2       C75.4,55.3,75.7,55.5,75.8,55.8z"></path>
				</g>
			</g>
		</g>
	</g>
	<g>
		<g>
			<g>
				<g>
					<path style="fill:#27A2DE;" d="M57.8,67.8c2.3,3.6-1.5,7.5-5.2,5.2c-0.3-0.2-0.5-0.4-0.6-0.6c-2.3-3.6,1.5-7.5,5.2-5.2       C57.4,67.3,57.6,67.5,57.8,67.8z"></path>
				</g>
			</g>
		</g>
	</g>
	<g>
		<g>
			<g>
				<g>
					<path style="fill:#27A2DE;" d="M30,70.2c2.3,3.6-1.5,7.5-5.2,5.2c-0.3-0.2-0.5-0.4-0.6-0.6c-2.3-3.6,1.5-7.5,5.2-5.2       C29.6,69.8,29.8,70,30,70.2z"></path>
				</g>
			</g>
		</g>
	</g>
	<g>
		<g>
			<g>
				<g>
					<path style="fill:#27A2DE;" d="M45.5,59.4c2.3,3.6-1.5,7.5-5.2,5.2c-0.3-0.2-0.5-0.4-0.6-0.6c-2.3-3.6,1.5-7.5,5.2-5.2       C45.1,58.9,45.3,59.1,45.5,59.4z"></path>
				</g>
			</g>
		</g>
	</g>
	<g>
		<g>
			<g>
				<g>
					<rect x="74.7" y="34.3" style="fill:#F15F50;" width="4.1" height="12.7"></rect>
				</g>
			</g>
		</g>
	</g>
	<g>
		<g>
			<g>
				<g>
					<rect x="66.2" y="30.2" style="fill:#F15F50;" width="4.1" height="16.8"></rect>
				</g>
			</g>
		</g>
	</g>
	<g>
		<g>
			<g>
				<g>
					<rect x="57.6" y="24.9" style="fill:#F15F50;" width="4.1" height="22.2"></rect>
				</g>
			</g>
		</g>
	</g>
	<g>
		<g>
			<g>
				<g>
					<path style="fill:#FFBF5D;" d="M43.1,33.2l-10.8,3.9l3.9-10.8c-4.1-1.5-8.8-0.6-12,2.7c-4.5,4.5-4.5,11.7,0,16.2       c4.5,4.5,11.7,4.5,16.2,0C43.7,42,44.6,37.3,43.1,33.2z"></path>
				</g>
			</g>
		</g>
	</g>
	<g>
		<g>
			<g>
				<g>
					<path style="fill:#44C4A1;" d="M48.2,28.1c-0.6-1.5-1.4-3-2.7-4.2c-1.2-1.2-2.7-2.1-4.2-2.7l-3.9,10.8L48.2,28.1z"></path>
				</g>
			</g>
		</g>
	</g>
</g>
<g style="display:none;">
	<g style="display:inline;">
		<g>
			<g>
				<g>
					
						<ellipse transform="matrix(0.7071 -0.7071 0.7071 0.7071 -26.6964 52.4335)" style="fill:#FFBF5D;" cx="49.9" cy="58.4" rx="35.7" ry="27.3"></ellipse>
				</g>
			</g>
		</g>
	</g>
	<g style="display:inline;">
		<g>
			<g>
				<g>
					<g>
						<path style="fill:#193651;" d="M87.2,73.2c-3,0-5.5-2.5-5.5-5.5c0-3,2.5-5.5,5.5-5.5c3,0,5.5,2.5,5.5,5.5h5.8        c0-5.2-3.6-9.6-8.4-10.9v-4.3h-5.8l0,4.3c-4.8,1.3-8.4,5.7-8.4,10.9c0,6.2,5.1,11.3,11.3,11.3c3,0,5.5,2.5,5.5,5.5        c0,3-2.5,5.5-5.5,5.5c-3,0-5.5-2.5-5.5-5.5h-5.8c0,5.2,3.6,9.6,8.4,10.9v4.3h5.8v-4.3c4.8-1.3,8.4-5.7,8.4-10.9        C98.5,78.3,93.4,73.2,87.2,73.2z"></path>
					</g>
				</g>
			</g>
		</g>
		<g>
			<g>
				<g>
					<g>
						<path style="fill:#193651;" d="M88.7,49.6h-3.1v-3.1h3.1V49.6z M88.7,43.4h-3.1v-3.1h3.1V43.4z M88.7,37.1h-3.1V34h3.1V37.1z"></path>
					</g>
				</g>
			</g>
		</g>
		<g>
			<g>
				<g>
					<g>
						<polygon style="fill:#193651;" points="97.4,14.9 87.2,4.8 77,14.9 74.8,12.7 87.2,0.3 99.6,12.7       "></polygon>
					</g>
				</g>
			</g>
		</g>
		<g>
			<g>
				<g>
					<g>
						<path style="fill:#193651;" d="M49.9,78.6c-2.4,0-4.4-2-4.4-4.4c0-2.4,2-4.4,4.4-4.4c2.4,0,4.4,2,4.4,4.4H59        c0-4.2-2.9-7.6-6.7-8.7v-3.4h-4.6l0,3.4c-3.8,1-6.7,4.5-6.7,8.7c0,5,4,9,9,9c2.4,0,4.4,2,4.4,4.4c0,2.4-2,4.4-4.4,4.4        c-2.4,0-4.4-2-4.4-4.4h-4.6c0,4.2,2.9,7.6,6.7,8.7v3.4h4.6v-3.4c3.8-1,6.7-4.5,6.7-8.7C59,82.6,54.9,78.6,49.9,78.6z"></path>
					</g>
				</g>
			</g>
		</g>
		<g>
			<g>
				<g>
					<g>
						<path style="fill:#193651;" d="M51.5,58.3h-3.1v-3.1h3.1V58.3z M51.5,52h-3.1v-3.1h3.1V52z M51.5,45.7h-3.1v-3h3.1V45.7z"></path>
					</g>
				</g>
			</g>
		</g>
		<g>
			<g>
				<g>
					<g>
						<rect x="48.4" y="10.9" style="fill:#193651;" width="3.1" height="27.5"></rect>
					</g>
				</g>
			</g>
		</g>
		<g>
			<g>
				<g>
					<g>
						<polygon style="fill:#193651;" points="58.3,21.5 49.9,13.1 41.5,21.5 39.3,19.3 49.9,8.7 60.6,19.3       "></polygon>
					</g>
				</g>
			</g>
		</g>
		<g>
			<g>
				<g>
					<g>
						<path style="fill:#193651;" d="M8.5,82.9c-1.9,0-3.5-1.6-3.5-3.5c0-1.9,1.6-3.5,3.5-3.5c1.9,0,3.5,1.6,3.5,3.5h3.7        c0-3.3-2.3-6.1-5.3-6.9v-2.7H6.7l0,2.7c-3.1,0.8-5.3,3.6-5.3,6.9c0,3.9,3.2,7.2,7.2,7.2c1.9,0,3.5,1.6,3.5,3.5        c0,1.9-1.6,3.5-3.5,3.5c-1.9,0-3.5-1.6-3.5-3.5H1.4c0,3.3,2.3,6.1,5.3,6.9v2.7h3.7V97c3.1-0.8,5.3-3.6,5.3-6.9        C15.7,86.1,12.5,82.9,8.5,82.9z"></path>
					</g>
				</g>
			</g>
		</g>
		<g>
			<g>
				<g>
					<g>
						<path style="fill:#193651;" d="M10.1,65.2H7V62h3.1V65.2z M10.1,58.9H7v-3.1h3.1V58.9z M10.1,52.6H7v-3h3.1V52.6z"></path>
					</g>
				</g>
			</g>
		</g>
		<g>
			<g>
				<g>
					<g>
						<polygon style="fill:#193651;" points="14.4,30.9 8.5,25 2.6,30.9 0.4,28.7 8.5,20.6 16.6,28.7       "></polygon>
					</g>
				</g>
			</g>
		</g>
		<g>
			<g>
				<g>
					<g>
						<rect x="7" y="22.8" style="fill:#193651;" width="3.1" height="23.5"></rect>
					</g>
				</g>
			</g>
		</g>
		<g>
			<g>
				<g>
					<g>
						<rect x="85.6" y="2.5" style="fill:#193651;" width="3.1" height="28"></rect>
					</g>
				</g>
			</g>
		</g>
	</g>
</g>
</svg>