<svg xmlns="http://www.w3.org/2000/svg" xmlns:xlink="http://www.w3.org/1999/xlink" x="0px" y="0px" viewBox="0 0 100 100" style="enable-background:new 0 0 100 100;" xml:space="preserve">
<g>
	<g>
		<g>
			<g>
				<g>
					<path style="fill:#FFFFFF;" d="M11.1,60.6l28.3,28.3c12.7,12.7,33.4,12.7,46.2,0l1.3-1.3c2.1-2.1,2.1-5.4,0-7.4L73.2,66.6       c-2.1-2.1-5.4-2.1-7.4,0l-5.7,5.7c-2.6,2.6-6.7,2.6-9.3,0L27.8,49.2c-2.6-2.6-2.6-6.7,0-9.3l5.7-5.7c2.1-2.1,2.1-5.4,0-7.4       L19.8,13.2c-2.1-2.1-5.4-2.1-7.4,0l-1.3,1.3C-1.6,27.2-1.6,47.8,11.1,60.6z"></path>
				</g>
			</g>
		</g>
		<g>
			<g>
				<g>
					<path style="fill:#193651;" d="M62.5,100C62.5,100,62.5,100,62.5,100c-9.1,0-17.7-3.6-24.2-10L10,61.7       c-13.3-13.3-13.3-35,0-48.4l1.3-1.3c1.3-1.3,3-2,4.8-2c1.8,0,3.5,0.7,4.8,2l13.6,13.6c1.3,1.3,2,3,2,4.8c0,1.8-0.7,3.5-2,4.8       L28.9,41c-1.9,1.9-1.9,5.1,0,7l23.1,23.1c1.9,1.9,5.2,1.9,7,0l5.7-5.7c1.3-1.3,3-2,4.8-2c1.8,0,3.5,0.7,4.8,2l13.6,13.6       c2.7,2.7,2.7,7,0,9.6L86.7,90C80.2,96.4,71.6,100,62.5,100z M16.1,13.2c-1,0-1.9,0.4-2.6,1.1l-1.3,1.3       c-12.1,12.1-12.1,31.8,0,43.9l28.3,28.3c5.9,5.9,13.7,9.1,22,9.1c0,0,0,0,0,0c8.3,0,16.1-3.2,22-9.1l1.3-1.3       c1.4-1.4,1.4-3.8,0-5.2L72.1,67.7c-1.4-1.4-3.8-1.4-5.2,0l-5.7,5.7c-1.5,1.5-3.6,2.4-5.7,2.4s-4.2-0.8-5.7-2.4L26.7,50.3       c-3.2-3.2-3.2-8.3,0-11.5l5.7-5.7c0.7-0.7,1.1-1.6,1.1-2.6c0-1-0.4-1.9-1.1-2.6L18.7,14.3C18,13.6,17.1,13.2,16.1,13.2z"></path>
				</g>
			</g>
		</g>
	</g>
	<g>
		<g>
			<g>
				<g>
					<path style="fill:#FFBF5D;" d="M33.4,26.8c2,2,2,5.4,0,7.4l-4.5,4.5L8.1,17.9c0.9-1.2,1.9-2.4,3-3.5l1.3-1.2c2.1-2,5.4-2,7.4,0       L33.4,26.8z"></path>
				</g>
			</g>
		</g>
		<g>
			<g>
				<g>
					<path style="fill:#193651;" d="M28.9,40.9L6,18l0.8-1.1c1-1.3,2-2.5,3.2-3.6l1.2-1.2c1.3-1.3,3-2,4.8-2c1.8,0,3.5,0.7,4.8,2       l13.6,13.6c2.6,2.7,2.7,7,0,9.6L28.9,40.9z M10.2,17.8l18.8,18.8l3.4-3.4c1.4-1.4,1.4-3.8,0-5.2L18.7,14.3       c-1.4-1.4-3.8-1.4-5.2,0l-1.2,1.2C11.5,16.2,10.8,17,10.2,17.8z"></path>
				</g>
			</g>
		</g>
	</g>
	<g>
		<g>
			<g>
				<g>
					<path style="fill:#FFBF5D;" d="M86.8,87.6l-1.3,1.3c-1.1,1.1-2.3,2.1-3.5,3L61.3,71.1l4.5-4.5c2-2,5.4-2,7.4,0l13.6,13.6       C88.9,82.2,88.9,85.6,86.8,87.6z"></path>
				</g>
			</g>
		</g>
		<g>
			<g>
				<g>
					<path style="fill:#193651;" d="M82,94L59,71.1l5.6-5.6c1.3-1.3,3-2,4.8-2s3.5,0.7,4.8,2l13.6,13.6c2.7,2.7,2.7,7,0,9.6L86.7,90       c-1.1,1.1-2.3,2.2-3.6,3.2L82,94z M63.5,71.1l18.8,18.8c0.8-0.7,1.5-1.3,2.3-2l1.2-1.3c1.4-1.4,1.4-3.8,0-5.2L72.1,67.7       c-1.4-1.4-3.8-1.4-5.2,0L63.5,71.1z"></path>
				</g>
			</g>
		</g>
	</g>
	<g>
		<g>
			<g>
				<g>
					<polygon style="fill:#FFFFFF;" points="98.4,1.6 45,1.6 45,34.9 58.3,34.9 58.3,42.5 68.2,34.9 98.4,34.9      "></polygon>
				</g>
			</g>
		</g>
		<g>
			<g>
				<g>
					<path style="fill:#193651;" d="M56.7,45.7v-9.2H43.4V0H100v36.5H68.7L56.7,45.7z M46.5,33.3h13.3v6l7.8-6h29.2V3.1H46.5V33.3z"></path>
				</g>
			</g>
		</g>
	</g>
	<g>
		<g>
			<g>
				<g>
					<line style="fill:#FFFFFF;" x1="51.1" y1="9.4" x2="92.3" y2="9.4"></line>
				</g>
			</g>
		</g>
		<g>
			<g>
				<g>
					<rect x="51.1" y="7.8" style="fill:#193651;" width="41.1" height="3.1"></rect>
				</g>
			</g>
		</g>
	</g>
	<g>
		<g>
			<g>
				<g>
					<line style="fill:#FFFFFF;" x1="51.1" y1="9.4" x2="92.3" y2="9.4"></line>
				</g>
			</g>
		</g>
		<g>
			<g>
				<g>
					<rect x="51.1" y="7.8" style="fill:#193651;" width="41.1" height="3.1"></rect>
				</g>
			</g>
		</g>
	</g>
	<g>
		<g>
			<g>
				<g>
					<line style="fill:#FFFFFF;" x1="51.1" y1="9.4" x2="92.3" y2="9.4"></line>
				</g>
			</g>
		</g>
		<g>
			<g>
				<g>
					<rect x="51.1" y="7.8" style="fill:#193651;" width="41.1" height="3.1"></rect>
				</g>
			</g>
		</g>
	</g>
	<g>
		<g>
			<g>
				<g>
					<line style="fill:#FFFFFF;" x1="51.1" y1="9.4" x2="92.3" y2="9.4"></line>
				</g>
			</g>
		</g>
		<g>
			<g>
				<g>
					<rect x="51.1" y="7.8" style="fill:#193651;" width="41.1" height="3.1"></rect>
				</g>
			</g>
		</g>
	</g>
	<g>
		<g>
			<g>
				<g>
					<line style="fill:#FFFFFF;" x1="51.1" y1="9.4" x2="92.3" y2="9.4"></line>
				</g>
			</g>
		</g>
		<g>
			<g>
				<g>
					<rect x="51.1" y="7.8" style="fill:#193651;" width="41.1" height="3.1"></rect>
				</g>
			</g>
		</g>
	</g>
	<g>
		<g>
			<g>
				<g>
					<line style="fill:#FFFFFF;" x1="51.1" y1="9.4" x2="92.3" y2="9.4"></line>
				</g>
			</g>
		</g>
		<g>
			<g>
				<g>
					<rect x="51.1" y="7.8" style="fill:#193651;" width="41.1" height="3.1"></rect>
				</g>
			</g>
		</g>
	</g>
	<g>
		<g>
			<g>
				<g>
					<line style="fill:#FFFFFF;" x1="51.1" y1="9.4" x2="92.3" y2="9.4"></line>
				</g>
			</g>
		</g>
		<g>
			<g>
				<g>
					<rect x="51.1" y="7.8" style="fill:#193651;" width="41.1" height="3.1"></rect>
				</g>
			</g>
		</g>
	</g>
	<g>
		<g>
			<g>
				<g>
					<line style="fill:#FFFFFF;" x1="51.1" y1="17.2" x2="92.3" y2="17.2"></line>
				</g>
			</g>
		</g>
		<g>
			<g>
				<g>
					<rect x="51.1" y="15.6" style="fill:#193651;" width="41.1" height="3.1"></rect>
				</g>
			</g>
		</g>
	</g>
	<g>
		<g>
			<g>
				<g>
					<line style="fill:#FFFFFF;" x1="81.5" y1="25" x2="84.7" y2="25"></line>
				</g>
			</g>
		</g>
		<g>
			<g>
				<g>
					<rect x="81.5" y="23.4" style="fill:#193651;" width="3.1" height="3.1"></rect>
				</g>
			</g>
		</g>
	</g>
	<g>
		<g>
			<g>
				<g>
					<line style="fill:#FFFFFF;" x1="73.9" y1="25" x2="77.1" y2="25"></line>
				</g>
			</g>
		</g>
		<g>
			<g>
				<g>
					<rect x="73.9" y="23.4" style="fill:#193651;" width="3.1" height="3.1"></rect>
				</g>
			</g>
		</g>
	</g>
	<g>
		<g>
			<g>
				<g>
					<line style="fill:#FFFFFF;" x1="66.3" y1="25" x2="69.5" y2="25"></line>
				</g>
			</g>
		</g>
		<g>
			<g>
				<g>
					<rect x="66.3" y="23.4" style="fill:#193651;" width="3.1" height="3.1"></rect>
				</g>
			</g>
		</g>
	</g>
	<g>
		<g>
			<g>
				<g>
					<line style="fill:#FFFFFF;" x1="58.7" y1="25" x2="61.9" y2="25"></line>
				</g>
			</g>
		</g>
		<g>
			<g>
				<g>
					<rect x="58.7" y="23.4" style="fill:#193651;" width="3.1" height="3.1"></rect>
				</g>
			</g>
		</g>
	</g>
	<g>
		<g>
			<g>
				<g>
					<line style="fill:#FFFFFF;" x1="51.1" y1="25" x2="54.3" y2="25"></line>
				</g>
			</g>
		</g>
		<g>
			<g>
				<g>
					<rect x="51.1" y="23.4" style="fill:#193651;" width="3.1" height="3.1"></rect>
				</g>
			</g>
		</g>
	</g>
	<g>
		<g>
			<g>
				<g>
					<line style="fill:#FFFFFF;" x1="89.1" y1="25" x2="92.3" y2="25"></line>
				</g>
			</g>
		</g>
		<g>
			<g>
				<g>
					<rect x="89.1" y="23.4" style="fill:#193651;" width="3.1" height="3.1"></rect>
				</g>
			</g>
		</g>
	</g>
</g>
</svg>